<svg width="146" height="43" viewBox="0 0 146 43" fill="none" xmlns="http://www.w3.org/2000/svg">
<g clip-path="url(#clip0_96_2157)">
<path d="M140.48 1.15969C142.973 1.15969 145.002 3.1417 145.002 5.57744V37.1422C145.002 39.5779 142.973 41.5599 140.48 41.5599H5.86412C3.37104 41.5599 1.34238 39.5779 1.34238 37.1422V5.57744C1.34238 3.1417 3.37104 1.15969 5.86412 1.15969H140.48ZM140.48 0.31665H5.86412C2.90392 0.31665 0.479492 2.68532 0.479492 5.57744V37.1422C0.479492 40.0343 2.90392 42.403 5.86412 42.403H140.48C143.44 42.403 145.865 40.0343 145.865 37.1422V5.57744C145.865 2.68532 143.44 0.31665 140.48 0.31665Z" fill="#0074BB"/>
<path d="M32.9251 21.1325C32.8939 17.7414 35.7671 16.0916 35.8985 16.0149C34.2713 13.6969 31.7491 13.3802 30.8628 13.355C28.7445 13.1372 26.6897 14.5934 25.6106 14.5934C24.51 14.5934 22.8483 13.376 21.0573 13.4118C18.7527 13.4465 16.5967 14.7501 15.4142 16.7745C12.9739 20.9021 14.7939 26.9678 17.132 30.3042C18.3015 31.9382 19.6681 33.7626 21.4569 33.6985C23.2069 33.628 23.8606 32.6084 25.9724 32.6084C28.0649 32.6084 28.6788 33.6985 30.5031 33.6574C32.3813 33.628 33.5637 32.016 34.6923 30.3674C36.0439 28.4945 36.5866 26.6501 36.6082 26.5554C36.564 26.5406 32.9606 25.197 32.9251 21.1325Z" fill="#0074BB"/>
<path d="M29.4789 11.1602C30.4201 10.0101 31.0641 8.44561 30.8853 6.85791C29.523 6.91684 27.8193 7.77854 26.8382 8.90329C25.9702 9.89444 25.1948 11.5189 25.3952 13.0467C26.9255 13.1582 28.4967 12.2923 29.4789 11.1602Z" fill="#0074BB"/>
<path d="M53.3028 10.8478C53.3028 12.0862 52.9226 13.0184 52.1634 13.6444C51.4601 14.222 50.4608 14.5114 49.1663 14.5114C48.5244 14.5114 47.9752 14.484 47.5154 14.4293V7.66291C48.1152 7.56817 48.7613 7.51978 49.4592 7.51978C50.6923 7.51978 51.6217 7.78177 52.2485 8.30575C52.9506 8.89815 53.3028 9.74511 53.3028 10.8478ZM52.1127 10.8783C52.1127 10.0755 51.8952 9.46 51.4601 9.0307C51.025 8.60245 50.3897 8.3878 49.5529 8.3878C49.1975 8.3878 48.8949 8.41097 48.644 8.45937V13.6034C48.7829 13.6244 49.0371 13.6339 49.4064 13.6339C50.2702 13.6339 50.9367 13.3993 51.4063 12.93C51.8759 12.4607 52.1127 11.7769 52.1127 10.8783Z" fill="#0074BB"/>
<path d="M59.6124 11.9293C59.6124 12.6921 59.3899 13.3171 58.9437 13.8074C58.4765 14.3114 57.8572 14.5628 57.0839 14.5628C56.3387 14.5628 55.7453 14.3219 55.3027 13.8379C54.8611 13.3549 54.6404 12.7457 54.6404 12.0114C54.6404 11.2433 54.8676 10.6131 55.3242 10.1238C55.7808 9.63454 56.3947 9.3894 57.1679 9.3894C57.9131 9.3894 58.5121 9.63033 58.9653 10.1133C59.3963 10.5825 59.6124 11.1886 59.6124 11.9293ZM58.442 11.9651C58.442 11.5074 58.3407 11.1149 58.1393 10.7877C57.9024 10.3921 57.5653 10.1943 57.127 10.1943C56.6736 10.1943 56.329 10.3921 56.092 10.7877C55.8896 11.1149 55.7895 11.5137 55.7895 11.985C55.7895 12.4427 55.8907 12.8352 56.092 13.1624C56.3365 13.5581 56.6768 13.7559 57.1162 13.7559C57.547 13.7559 57.8851 13.5549 58.1286 13.1519C58.3375 12.8184 58.442 12.4228 58.442 11.9651Z" fill="#0074BB"/>
<path d="M68.0728 9.49048L66.4843 14.4503H65.4506L64.7924 12.2966C64.6254 11.7589 64.4899 11.2244 64.3842 10.6941H64.3638C64.2657 11.2392 64.1302 11.7726 63.9556 12.2966L63.2571 14.4503H62.2112L60.7173 9.49048H61.8771L62.4512 11.8484C62.5902 12.406 62.7046 12.9374 62.7957 13.4403H62.8162C62.9003 13.0257 63.0393 12.4975 63.2355 11.8589L63.9556 9.49153H64.8754L65.5656 11.8084C65.7327 12.3734 65.8682 12.9173 65.9727 13.4413H66.0042C66.0807 12.931 66.1958 12.387 66.3488 11.8084L66.9649 9.49153H68.0728V9.49048Z" fill="#0074BB"/>
<path d="M73.924 14.4502H72.7951V11.6095C72.7951 10.7341 72.4546 10.2963 71.7719 10.2963C71.4373 10.2963 71.1669 10.4163 70.9567 10.6572C70.7493 10.8982 70.6436 11.1823 70.6436 11.5074V14.4492H69.5148V10.9076C69.5148 10.4721 69.5007 9.99963 69.4739 9.48829H70.4661L70.5187 10.2637H70.5496C70.681 10.0228 70.8772 9.8239 71.1348 9.66502C71.4402 9.47986 71.783 9.38623 72.1579 9.38623C72.6316 9.38623 73.0258 9.53563 73.3388 9.83549C73.7289 10.2027 73.924 10.7509 73.924 11.479V14.4502Z" fill="#0074BB"/>
<path d="M77.0361 14.4503H75.9089V7.2146H77.0361V14.4503Z" fill="#0074BB"/>
<path d="M83.6807 11.9293C83.6807 12.6921 83.4576 13.3171 83.012 13.8074C82.5448 14.3114 81.9246 14.5628 81.152 14.5628C80.4056 14.5628 79.8123 14.3219 79.3708 13.8379C78.9292 13.3549 78.7085 12.7457 78.7085 12.0114C78.7085 11.2433 78.9357 10.6131 79.3924 10.1238C79.8491 9.63454 80.4628 9.3894 81.2349 9.3894C81.9812 9.3894 82.5793 9.63033 83.0336 10.1133C83.464 10.5825 83.6807 11.1886 83.6807 11.9293ZM82.5092 11.9651C82.5092 11.5074 82.4076 11.1149 82.2067 10.7877C81.9707 10.3921 81.6326 10.1943 81.1952 10.1943C80.7408 10.1943 80.3963 10.3921 80.1603 10.7877C79.9577 11.1149 79.8578 11.5137 79.8578 11.985C79.8578 12.4427 79.9588 12.8352 80.1603 13.1624C80.405 13.5581 80.7449 13.7559 81.1847 13.7559C81.6151 13.7559 81.952 13.5549 82.1956 13.1519C82.4058 12.8184 82.5092 12.4228 82.5092 11.9651Z" fill="#0074BB"/>
<path d="M89.1429 14.4503H88.1296L88.0455 13.8789H88.014C87.6677 14.3345 87.173 14.5628 86.5312 14.5628C86.0523 14.5628 85.6646 14.4124 85.3726 14.1136C85.1074 13.8421 84.9749 13.5044 84.9749 13.1035C84.9749 12.4974 85.2336 12.0356 85.7539 11.7157C86.2731 11.3959 87.0031 11.2391 87.9433 11.2464V11.1538C87.9433 10.5005 87.5923 10.1743 86.8886 10.1743C86.3881 10.1743 85.9466 10.2974 85.5653 10.5415L85.3358 9.81759C85.8076 9.53248 86.3905 9.3894 87.0772 9.3894C88.4041 9.3894 89.0699 10.0733 89.0699 11.4411V13.2676C89.0699 13.7632 89.0944 14.1578 89.1429 14.4503ZM87.9714 12.7457V11.9808C86.7263 11.9598 86.1037 12.2933 86.1037 12.9804C86.1037 13.2392 86.175 13.4328 86.3204 13.5622C86.4658 13.6917 86.6509 13.7559 86.8717 13.7559C87.1193 13.7559 87.3506 13.679 87.562 13.5265C87.774 13.3728 87.9042 13.1782 87.9527 12.9394C87.9649 12.8857 87.9714 12.8205 87.9714 12.7457Z" fill="#0074BB"/>
<path d="M95.5558 14.4503H94.5542L94.5016 13.6538H94.4707C94.1506 14.2598 93.6058 14.5629 92.8402 14.5629C92.2281 14.5629 91.7189 14.3282 91.3153 13.8589C90.9112 13.3897 90.7097 12.7805 90.7097 12.0324C90.7097 11.2296 90.9287 10.5794 91.3679 10.0828C91.793 9.61982 92.3145 9.38832 92.9348 9.38832C93.6163 9.38832 94.0934 9.61245 94.365 10.0617H94.3866V7.2146H95.516V13.114C95.516 13.5969 95.5289 14.042 95.5558 14.4503ZM94.3866 12.3585V11.5316C94.3866 11.3885 94.3755 11.2728 94.355 11.1843C94.292 10.9192 94.1547 10.6962 93.9468 10.5162C93.7372 10.3363 93.4837 10.2459 93.1923 10.2459C92.7712 10.2459 92.4413 10.4089 92.1995 10.7361C91.9589 11.0634 91.8374 11.4811 91.8374 11.9914C91.8374 12.4817 91.9525 12.8794 92.1843 13.1855C92.4284 13.5117 92.7584 13.6748 93.1707 13.6748C93.541 13.6748 93.837 13.5391 94.0625 13.2666C94.2797 13.0151 94.3866 12.7121 94.3866 12.3585Z" fill="#0074BB"/>
<path d="M105.209 11.9293C105.209 12.6921 104.986 13.3171 104.54 13.8074C104.072 14.3114 103.454 14.5628 102.68 14.5628C101.936 14.5628 101.343 14.3219 100.899 13.8379C100.457 13.3549 100.237 12.7457 100.237 12.0114C100.237 11.2433 100.464 10.6131 100.92 10.1238C101.377 9.63454 101.991 9.3894 102.765 9.3894C103.509 9.3894 104.109 9.63033 104.561 10.1133C104.992 10.5825 105.209 11.1886 105.209 11.9293ZM104.039 11.9651C104.039 11.5074 103.938 11.1149 103.736 10.7877C103.498 10.3921 103.162 10.1943 102.723 10.1943C102.271 10.1943 101.926 10.3921 101.688 10.7877C101.486 11.1149 101.385 11.5137 101.385 11.985C101.385 12.4427 101.487 12.8352 101.688 13.1624C101.933 13.5581 102.273 13.7559 102.712 13.7559C103.143 13.7559 103.482 13.5549 103.725 13.1519C103.933 12.8184 104.039 12.4228 104.039 11.9651Z" fill="#0074BB"/>
<path d="M111.277 14.4502H110.149V11.6095C110.149 10.7341 109.809 10.2963 109.126 10.2963C108.79 10.2963 108.52 10.4163 108.311 10.6572C108.102 10.8982 107.998 11.1823 107.998 11.5074V14.4492H106.868V10.9076C106.868 10.4721 106.855 9.99963 106.828 9.48829H107.819L107.872 10.2637H107.903C108.035 10.0228 108.231 9.8239 108.488 9.66502C108.794 9.47986 109.136 9.38623 109.512 9.38623C109.985 9.38623 110.379 9.53563 110.692 9.83549C111.083 10.2027 111.277 10.7509 111.277 11.479V14.4502Z" fill="#0074BB"/>
<path d="M118.873 10.3163H117.63V12.7257C117.63 13.3381 117.851 13.6443 118.288 13.6443C118.491 13.6443 118.658 13.6275 118.791 13.5927L118.82 14.4292C118.597 14.5113 118.304 14.5523 117.944 14.5523C117.497 14.5523 117.151 14.4197 116.9 14.1546C116.648 13.8895 116.523 13.4433 116.523 12.8173V10.3163H115.781V9.49036H116.523V8.58132L117.629 8.25513V9.48931H118.872V10.3163H118.873Z" fill="#0074BB"/>
<path d="M124.847 14.4503H123.717V11.6305C123.717 10.7414 123.378 10.2964 122.695 10.2964C122.172 10.2964 121.815 10.5541 121.619 11.0697C121.585 11.178 121.566 11.3106 121.566 11.4664V14.4492H120.438V7.2146H121.566V10.2037H121.588C121.943 9.65979 122.452 9.38832 123.112 9.38832C123.58 9.38832 123.966 9.53772 124.273 9.83763C124.656 10.2111 124.847 10.7666 124.847 11.5011V14.4503Z" fill="#0074BB"/>
<path d="M131.011 11.7357C131.011 11.9335 130.996 12.0998 130.969 12.2355H127.584C127.599 12.7258 127.761 13.0993 128.074 13.3581C128.36 13.5896 128.73 13.7053 129.182 13.7053C129.683 13.7053 130.14 13.6275 130.551 13.4707L130.728 14.2367C130.246 14.4408 129.68 14.5428 129.024 14.5428C128.238 14.5428 127.619 14.3166 127.171 13.8642C126.72 13.4118 126.497 12.8047 126.497 12.0429C126.497 11.2948 126.705 10.6719 127.124 10.1753C127.561 9.64504 128.152 9.37988 128.899 9.37988C129.629 9.37988 130.184 9.64504 130.558 10.1753C130.861 10.5962 131.011 11.117 131.011 11.7357ZM129.934 11.4505C129.942 11.1234 129.868 10.8414 129.715 10.6036C129.52 10.2974 129.221 10.1438 128.817 10.1438C128.449 10.1438 128.148 10.2932 127.919 10.5931C127.731 10.8319 127.62 11.117 127.584 11.4505H129.934Z" fill="#0074BB"/>
<path d="M58.2513 33.4638H55.8057L54.466 29.3509H49.8093L48.5332 33.4638H46.1521L50.7656 19.4617H53.6152L58.2513 33.4638ZM54.0621 27.6254L52.8506 23.9691C52.7224 23.5956 52.4822 22.716 52.1279 21.3313H52.0849C51.9438 21.9269 51.7166 22.8065 51.4042 23.9691L50.2143 27.6254H54.0621Z" fill="#0074BB"/>
<path d="M70.1155 28.2915C70.1155 30.0087 69.6407 31.3659 68.6906 32.3623C67.8403 33.2493 66.7838 33.6923 65.5224 33.6923C64.1611 33.6923 63.1834 33.2146 62.5878 32.2592H62.5445V37.5779H60.2488V26.6912C60.2488 25.6117 60.2196 24.5038 60.1636 23.3674H62.183L62.3109 24.9678H62.3542C63.1198 23.762 64.2819 23.1602 65.8412 23.1602C67.0606 23.1602 68.0779 23.6305 68.892 24.5722C69.7085 25.5149 70.1155 26.7543 70.1155 28.2915ZM67.7766 28.3736C67.7766 27.3909 67.5506 26.5807 67.0957 25.9431C66.5993 25.2782 65.9329 24.9457 65.0972 24.9457C64.5307 24.9457 64.0156 25.1309 63.556 25.496C63.0953 25.8642 62.7933 26.345 62.6526 26.9405C62.5813 27.2183 62.5457 27.4456 62.5457 27.6245V29.3079C62.5457 30.0423 62.7764 30.662 63.2372 31.1681C63.6979 31.6742 64.2971 31.9267 65.0336 31.9267C65.8985 31.9267 66.5712 31.6006 67.053 30.9503C67.5354 30.299 67.7766 29.4405 67.7766 28.3736Z" fill="#0074BB"/>
<path d="M82.0018 28.2915C82.0018 30.0087 81.527 31.3659 80.5763 32.3623C79.7265 33.2493 78.6701 33.6923 77.4086 33.6923C76.0479 33.6923 75.0697 33.2146 74.4752 32.2592H74.432V37.5779H72.1363V26.6912C72.1363 25.6117 72.1071 24.5038 72.051 23.3674H74.0705L74.1984 24.9678H74.2416C75.0061 23.762 76.1682 23.1602 77.7287 23.1602C78.9469 23.1602 79.9642 23.6305 80.7807 24.5722C81.5936 25.5149 82.0018 26.7543 82.0018 28.2915ZM79.6629 28.3736C79.6629 27.3909 79.4357 26.5807 78.9814 25.9431C78.485 25.2782 77.8204 24.9457 76.9835 24.9457C76.4158 24.9457 75.9025 25.1309 75.4411 25.496C74.9804 25.8642 74.6802 26.345 74.5389 26.9405C74.4688 27.2183 74.432 27.4456 74.432 27.6245V29.3079C74.432 30.0423 74.6627 30.662 75.1217 31.1681C75.5825 31.6731 76.1811 31.9267 76.9198 31.9267C77.7847 31.9267 78.4581 31.6006 78.9393 30.9503C79.4217 30.299 79.6629 29.4405 79.6629 28.3736Z" fill="#0074BB"/>
<path d="M95.2913 29.5372C95.2913 30.7283 94.8679 31.6973 94.0182 32.4454C93.0844 33.2629 91.785 33.6712 90.1147 33.6712C88.5724 33.6712 87.3361 33.3807 86.3999 32.7989L86.9319 30.9292C87.9399 31.5247 89.046 31.8236 90.2514 31.8236C91.1163 31.8236 91.7891 31.6321 92.2726 31.2512C92.7538 30.8703 92.9944 30.359 92.9944 29.7213C92.9944 29.1532 92.7959 28.6745 92.3987 28.2862C92.0034 27.898 91.3435 27.5371 90.4213 27.2035C87.9119 26.2892 86.6586 24.9498 86.6586 23.1885C86.6586 22.0374 87.0978 21.0936 87.9779 20.3592C88.8545 19.6238 90.0242 19.2566 91.4865 19.2566C92.7906 19.2566 93.8739 19.4786 94.7388 19.9216L94.1648 21.7502C93.3571 21.3209 92.4437 21.1063 91.4217 21.1063C90.614 21.1063 89.9833 21.3009 89.5307 21.6881C89.1482 22.0343 88.9566 22.4562 88.9566 22.956C88.9566 23.5094 89.1756 23.9671 89.6148 24.3269C89.9973 24.6594 90.6917 25.0193 91.6997 25.4075C92.9325 25.8926 93.8383 26.4597 94.4211 27.1099C95.0016 27.758 95.2913 28.5692 95.2913 29.5372Z" fill="#0074BB"/>
<path d="M102.883 25.0507H100.352V29.9527C100.352 31.1995 100.798 31.8224 101.691 31.8224C102.102 31.8224 102.442 31.7877 102.712 31.7182L102.775 33.4217C102.323 33.5869 101.727 33.67 100.989 33.67C100.082 33.67 99.374 33.3996 98.8624 32.8598C98.3531 32.319 98.0968 31.412 98.0968 30.1379V25.0486H96.5889V23.3652H98.0968V21.5165L100.352 20.8516V23.3652H102.883V25.0507Z" fill="#0074BB"/>
<path d="M114.301 28.3325C114.301 29.8844 113.847 31.1586 112.94 32.155C111.989 33.1808 110.727 33.6922 109.154 33.6922C107.637 33.6922 106.43 33.2008 105.529 32.2181C104.629 31.2354 104.179 29.9949 104.179 28.4998C104.179 26.9352 104.642 25.6537 105.571 24.6573C106.499 23.6598 107.75 23.1611 109.324 23.1611C110.84 23.1611 112.06 23.6525 112.981 24.6362C113.862 25.5906 114.301 26.8227 114.301 28.3325ZM111.919 28.4051C111.919 27.4739 111.716 26.6754 111.303 26.0093C110.822 25.2034 110.134 24.8014 109.242 24.8014C108.319 24.8014 107.618 25.2044 107.137 26.0093C106.724 26.6764 106.52 27.4876 106.52 28.4472C106.52 29.3783 106.724 30.1769 107.137 30.8419C107.633 31.6478 108.326 32.0498 109.221 32.0498C110.098 32.0498 110.786 31.6394 111.282 30.8208C111.706 30.1422 111.919 29.3352 111.919 28.4051Z" fill="#0074BB"/>
<path d="M121.765 25.3403C121.537 25.2992 121.295 25.2782 121.041 25.2782C120.233 25.2782 119.609 25.5759 119.169 26.1725C118.787 26.6986 118.595 27.3635 118.595 28.1663V33.464H116.3L116.322 26.547C116.322 25.3834 116.293 24.3238 116.235 23.3685H118.236L118.319 25.3002H118.383C118.625 24.6363 119.008 24.1019 119.531 23.7009C120.042 23.3401 120.595 23.1602 121.191 23.1602C121.403 23.1602 121.594 23.1749 121.765 23.2012V25.3403Z" fill="#0074BB"/>
<path d="M132.033 27.9379C132.033 28.3398 132.006 28.6787 131.949 28.9553H125.061C125.087 29.9528 125.42 30.7156 126.06 31.2417C126.64 31.712 127.391 31.9477 128.313 31.9477C129.333 31.9477 130.263 31.7888 131.1 31.47L131.459 33.0272C130.482 33.4439 129.327 33.6511 127.995 33.6511C126.393 33.6511 125.135 33.1903 124.22 32.2697C123.306 31.349 122.848 30.1127 122.848 28.5619C122.848 27.0393 123.274 25.7715 124.126 24.7604C125.017 23.6809 126.223 23.1411 127.739 23.1411C129.229 23.1411 130.356 23.6809 131.121 24.7604C131.728 25.6179 132.033 26.6785 132.033 27.9379ZM129.844 27.3561C129.858 26.6911 129.709 26.1166 129.397 25.6316C129 25.0077 128.389 24.6962 127.568 24.6962C126.817 24.6962 126.206 25.0003 125.74 25.6105C125.358 26.0956 125.131 26.6774 125.061 27.355H129.844V27.3561Z" fill="#0074BB"/>
</g>
<defs>
<clipPath id="clip0_96_2157">
<rect width="146" height="42.1342" fill="white" transform="translate(0 0.31665)"/>
</clipPath>
</defs>
</svg>
