<svg width="101" height="101" viewBox="0 0 101 101" fill="none" xmlns="http://www.w3.org/2000/svg">
<path d="M73.0957 36.2903C73.0957 29.2717 73.1064 22.2553 73.0893 15.2368C73.0807 12.0088 70.7469 9.60866 67.581 9.60438C56.1857 9.58513 44.7883 9.58727 33.3931 9.61722C32.6166 9.61936 31.778 9.79691 31.0785 10.1285C28.8217 11.2002 27.8677 13.0698 27.8677 15.5555C27.8869 38.9043 27.8784 62.2531 27.8784 85.6019C27.8784 85.8415 27.8762 86.0832 27.8869 86.3228C27.9832 88.2844 28.888 89.7904 30.5587 90.7872C31.1641 91.1487 31.8807 91.3284 32.546 91.5915H68.4259C71.7117 90.7958 73.1492 88.4171 73.1321 84.9623C73.0465 68.739 73.0936 52.5136 73.0936 36.2903H73.0957ZM50.4464 86.0597C49.1522 86.034 48.119 84.9538 48.1596 83.6639C48.1981 82.4082 49.2506 81.3792 50.4913 81.3792C51.7598 81.3792 52.838 82.4745 52.8251 83.7473C52.8102 85.0372 51.7342 86.0832 50.4485 86.0576L50.4464 86.0597ZM70.5608 76.0207V77.0967H30.4133V76.1854C30.4133 55.9854 30.4175 35.7854 30.4047 15.5854C30.4047 14.4239 30.6165 13.3629 31.6433 12.7233C32.1588 12.4024 32.8284 12.1714 33.4295 12.1692C44.799 12.1371 56.1686 12.1414 67.5382 12.15C69.2944 12.15 70.4859 13.3393 70.5565 15.0999C70.5651 15.3394 70.5608 15.5812 70.5608 15.8207C70.5608 35.8881 70.5608 55.9555 70.5608 76.0207Z" fill="#0074BB"/>
<path d="M50.4592 34.241C44.4076 34.2517 39.5432 39.1418 39.556 45.1998C39.5688 51.2429 44.4889 56.1437 50.5148 56.118C56.5665 56.0924 61.4331 51.1937 61.4181 45.1442C61.4031 39.0883 56.5194 34.2303 50.4571 34.241H50.4592ZM54.9536 43.4671C53.2701 45.2084 51.5545 46.9197 49.8196 48.6096C49.287 49.1294 48.6367 49.0867 48.0955 48.5818C47.3938 47.9294 46.7136 47.2534 46.0633 46.5475C45.537 45.9763 45.5862 45.2576 46.1103 44.7634C46.6002 44.3014 47.2976 44.28 47.8366 44.7848C48.2024 45.1271 48.4891 45.5571 48.8848 46.0362C50.3737 44.5324 51.6593 43.2233 52.9578 41.9291C53.5653 41.3258 54.2733 41.251 54.8081 41.6938C55.36 42.1537 55.4777 42.9238 54.9514 43.4671H54.9536Z" fill="#0074BB"/>
<path d="M44.9488 18.8862C46.7884 18.8926 48.6303 18.8862 50.4699 18.8862C52.3096 18.8862 54.1514 18.8904 55.9911 18.8862C57.02 18.884 57.5698 18.4241 57.5548 17.6005C57.542 16.8112 57.0007 16.3555 56.0232 16.3534C52.3417 16.347 48.6623 16.347 44.9809 16.3534C43.9519 16.3534 43.4022 16.824 43.4171 17.6497C43.43 18.4391 43.9712 18.884 44.9488 18.8883V18.8862Z" fill="#0074BB"/>
</svg>
