<svg width="101" height="101" viewBox="0 0 101 101" fill="none" xmlns="http://www.w3.org/2000/svg">
<path d="M50.5032 29.7888C38.9017 29.7777 29.4969 39.0808 29.4857 50.5831C29.4745 62.0743 38.8744 71.3853 50.4904 71.3868C62.1111 71.39 71.5095 62.0933 71.5095 50.5974C71.5095 39.0935 62.1288 29.7999 50.5048 29.7888H50.5032ZM56.8367 58.1296C55.7809 58.9865 54.5758 59.5275 53.2552 59.7957C52.7738 59.8941 52.6502 60.1035 52.6647 60.5415C52.6887 61.2745 52.6711 62.0092 52.6711 62.7835H48.9483C48.9483 62.1155 48.9114 61.4411 48.9596 60.7715C49.0029 60.1781 48.7718 60.021 48.1957 59.9718C46.2156 59.8052 44.3029 59.3577 42.5378 58.4121C42.4479 58.3644 42.3709 58.2915 42.2297 58.1883C42.8748 56.7412 43.515 55.302 44.1071 53.9724C45.6781 54.4277 47.1784 54.9514 48.7221 55.2767C49.6158 55.4655 50.5802 55.3814 51.5077 55.3258C51.9939 55.2973 52.5716 55.1592 52.6277 54.5118C52.6839 53.874 52.1656 53.6471 51.681 53.5043C50.8129 53.2504 49.9207 53.0838 49.0478 52.8458C47.9198 52.5364 46.7628 52.2888 45.6861 51.8477C41.4049 50.0944 41.9216 45.2675 44.2146 43.2269C45.4069 42.167 46.8158 41.5847 48.361 41.3149C48.852 41.2292 48.9708 41.0325 48.9563 40.5929C48.9307 39.8868 48.9499 39.1807 48.9499 38.4286H52.6261V40.95C54.4683 41.4672 56.2125 41.9575 58.0755 42.4812C57.3775 44.1425 56.7709 45.5848 56.2189 46.9018C54.6769 46.5131 53.2552 46.0783 51.8014 45.8228C51.0664 45.6943 50.2513 45.8038 49.5148 45.9783C49.1665 46.0609 48.7397 46.521 48.6836 46.8653C48.6434 47.1097 49.1104 47.6079 49.4393 47.7095C50.5818 48.0602 51.7677 48.2648 52.9262 48.5679C53.8248 48.8027 54.7346 49.0376 55.5931 49.3851C59.8807 51.1194 59.4362 56.024 56.8383 58.1312L56.8367 58.1296Z" fill="#0074BB"/>
<path d="M49.1345 25.1143C58.3611 24.6335 65.7216 28.3623 71.426 35.5106C71.4758 35.4011 71.5303 35.3377 71.5319 35.2726C71.5881 32.8401 71.5448 30.4235 70.7537 28.072C68.5088 21.4076 62.424 17.1044 55.0909 17.0774C48.8729 17.0536 42.6549 17.0727 36.4354 17.0727H35.4213V10.0926C26.7306 15.5113 18.1602 20.8523 9.5 26.2504C15.7805 30.1649 21.9102 33.9842 28.0464 37.8082C32.9886 30.0951 39.8982 25.5935 49.1361 25.1127L49.1345 25.1143Z" fill="#0074BB"/>
<path d="M91.5 74.9316C85.2499 71.0362 79.1042 67.2058 72.9536 63.3722C64.1298 78.8842 41.1674 80.9597 29.6221 65.7222C29.5242 65.7349 29.4263 65.7476 29.3285 65.7603C29.4729 67.6088 29.4263 69.497 29.797 71.3012C31.3551 78.8667 37.8057 84.0364 45.6171 84.0728C51.941 84.103 58.2648 84.0792 64.5887 84.0792H65.5771V91.091C74.2598 85.6786 82.835 80.3329 91.5 74.93V74.9316Z" fill="#0074BB"/>
</svg>
