<svg width="101" height="101" viewBox="0 0 101 101" fill="none" xmlns="http://www.w3.org/2000/svg">
<path d="M90.9845 56.1526C90.0237 57.3641 89.1432 58.6457 88.1143 59.795C84.3195 64.0431 79.7003 67.2442 74.7983 70.0623C73.1757 70.9949 71.4126 71.2838 69.5453 70.9328C67.7843 70.6018 66.3622 69.5929 64.896 68.6844C59.5247 65.3528 54.6408 61.4678 51.0565 56.1606C50.7577 55.7174 50.4067 55.7053 49.9734 55.7053C36.7617 55.7093 23.55 55.7073 10.3383 55.7093C10.0796 55.7093 9.82286 55.7314 9.50395 55.7474V56.6641C9.50395 64.6709 9.50395 72.6778 9.50395 80.6846C9.50395 84.3731 11.5719 86.4531 15.2403 86.4531C22.9804 86.4531 30.7205 86.4531 38.4606 86.4531C54.2356 86.4531 70.0086 86.4631 85.7836 86.429C86.7424 86.427 87.7553 86.2184 88.6438 85.8594C90.2765 85.1975 91.0326 83.7473 91.4979 82.1287V55.7073C91.3254 55.8537 91.1209 55.9781 90.9825 56.1526H90.9845ZM32.285 71.0792C29.0578 71.0872 25.8325 71.0872 22.6053 71.0792C20.9065 71.0752 19.7492 70.0162 19.7592 68.5018C19.7692 66.9935 20.9265 65.9646 22.6374 65.9586C24.238 65.9526 25.8366 65.9586 27.4371 65.9586C29.0638 65.9586 30.6904 65.9506 32.3171 65.9606C33.9638 65.9706 35.109 67.0136 35.1231 68.4958C35.1371 70.0121 33.9818 71.0752 32.285 71.0812V71.0792Z" fill="#0074BB"/>
<path d="M89.757 22.5246C83.8762 20.0155 77.9994 17.4943 72.1247 14.9711C71.3404 14.6341 70.5802 14.6542 69.804 14.9992C68.7811 15.4545 67.7462 15.8797 66.7172 16.3189C61.9657 18.3527 57.2181 20.3966 52.4625 22.4183C51.3052 22.9097 50.4969 23.6759 50.517 24.9816C50.6052 30.6057 50.166 36.2438 50.9783 41.8478C51.7926 47.4658 54.033 52.4119 57.894 56.5999C61.2777 60.2703 65.3393 63.0503 69.6175 65.5454C70.5863 66.109 71.539 66.0448 72.4977 65.4832C75.5183 63.7162 78.4327 61.7967 81.1023 59.5222C86.6662 54.7807 90.128 48.8758 91.0527 41.563C91.1991 40.4037 91.3515 39.2463 91.4999 38.087V24.4802C91.1911 23.5877 90.6616 22.9117 89.757 22.5246ZM80.6089 34.3303C79.2229 36.1234 77.7868 37.8784 76.3728 39.6475C74.4914 42.0002 72.608 44.3529 70.7247 46.7036C69.2585 48.5329 67.3711 48.4627 66.0694 46.5191C64.4668 44.1283 62.8602 41.7395 61.2837 39.3306C60.2046 37.6819 60.9347 35.7343 62.7599 35.285C63.7869 35.0323 64.8258 35.4555 65.5158 36.4624C66.4043 37.7601 67.2628 39.0779 68.1373 40.3856C68.2817 40.6022 68.4401 40.8108 68.6507 41.1016C71.3083 37.7761 73.8937 34.553 76.465 31.3197C77.145 30.4653 77.9733 29.9518 79.0905 30.1384C81.0822 30.4713 81.8925 32.6756 80.6129 34.3323L80.6089 34.3303Z" fill="#0074BB"/>
<path d="M46.4694 45.4119C45.248 40.3375 45.3583 35.2189 45.3783 30.0862H44.6964C34.7981 30.0862 24.9019 30.0862 15.0036 30.0862C14.7369 30.0862 14.4701 30.0922 14.2054 30.1183C11.6601 30.377 9.65639 32.2544 9.56613 34.8077C9.43977 38.3197 9.53404 41.8397 9.53404 45.4119H46.4694Z" fill="#0074BB"/>
</svg>
