<svg width="101" height="101" viewBox="0 0 101 101" fill="none" xmlns="http://www.w3.org/2000/svg">
<path d="M19.1298 63.692C18.6102 63.6985 18.352 63.5556 18.115 63.0652C17.2803 61.3391 15.8238 60.4639 13.9337 60.5434C11.9689 60.6262 10.6195 61.6963 9.89856 63.5442C9.81088 63.7667 9.63551 63.955 9.50073 64.1596V65.759C9.65175 66.0221 9.83361 66.2722 9.94728 66.5498C10.6065 68.1655 11.7952 69.1625 13.5083 69.3931C15.2149 69.6237 16.8305 69.1171 17.6441 67.5874C18.3179 66.3176 19.1737 66.1634 20.3623 66.2462C21.2359 66.3079 22.1176 66.2575 22.9961 66.2575H26.1122V63.679C23.7495 63.679 21.4389 63.6627 19.1282 63.692H19.1298Z" fill="#0074BB"/>
<path d="M91.3708 63.9664C90.6905 61.8652 89.3476 60.7318 87.3325 60.5645C85.4911 60.4119 83.955 61.3797 82.9352 63.2698C82.8248 63.476 82.466 63.6546 82.2175 63.6611C80.6765 63.6968 79.1323 63.679 77.5897 63.679H75.0793V66.2576C77.3705 66.2576 79.6016 66.2884 81.831 66.2397C82.5033 66.2251 82.8475 66.4102 83.1577 67.0289C84.0345 68.7777 85.5333 69.5944 87.4689 69.4093C89.3638 69.2275 90.6304 68.1428 91.2864 66.355C91.3595 66.1569 91.4277 65.9588 91.4991 65.7607V64.1612C91.4553 64.0979 91.3919 64.0395 91.3692 63.968L91.3708 63.9664Z" fill="#0074BB"/>
<path d="M70.9549 48.6784C70.1267 48.3276 69.1541 48.1831 68.2447 48.1798C56.4722 48.1474 44.6997 48.1587 32.9288 48.1587C32.7421 48.1587 32.5554 48.1587 32.3703 48.1636C29.4101 48.2351 27.3089 50.3476 27.3056 53.3045C27.2943 61.1897 27.2959 69.0748 27.3056 76.9616C27.3089 79.3194 28.6323 81.1802 30.8195 81.8362C31.4934 82.0392 32.2339 82.0912 32.9451 82.0928C38.8313 82.1123 44.7176 82.1042 50.6038 82.1042C56.4105 82.1042 62.2156 82.1042 68.0223 82.1042C68.3958 82.1042 68.7692 82.1042 69.1411 82.0831C71.7684 81.932 73.8745 79.8097 73.8842 77.1873C73.9102 69.1414 73.9086 61.0971 73.8842 53.0512C73.8777 50.9858 72.8368 49.474 70.9597 48.6784H70.9549ZM55.8211 66.2835C55.584 68.2711 54.4344 69.6578 52.58 70.382C51.9954 70.6109 51.8379 70.8935 51.8639 71.4781C51.911 72.54 51.8883 73.6068 51.872 74.6704C51.859 75.531 51.3313 76.0977 50.5892 76.0945C49.8536 76.0913 49.3162 75.5132 49.3064 74.6607C49.2902 73.334 49.3016 72.0074 49.3016 70.6597C49.1327 70.6012 49.0093 70.5622 48.8907 70.5184C46.8464 69.7471 45.5473 68.3181 45.3509 66.1195C45.1658 64.0541 46.0816 62.4384 47.8677 61.3975C49.7871 60.2787 51.7486 60.3469 53.5949 61.5648C55.2658 62.6657 56.0565 64.2895 55.8195 66.2835H55.8211Z" fill="#0074BB"/>
<path d="M34.3139 45.5461H38.1315V44.5815C38.1315 41.3567 38.1185 38.1334 38.1412 34.9086C38.1461 34.1129 38.1932 33.3043 38.3442 32.5248C39.5474 26.3106 45.3866 22.0205 51.7746 22.6278C58.3039 23.2481 63.0259 28.3549 63.0454 34.8323C63.0551 38.1091 63.047 41.3875 63.047 44.6643V45.5233H66.8694C66.8873 45.3074 66.9116 45.1498 66.9116 44.9923C66.9116 41.4216 66.9181 37.8509 66.9019 34.2802C66.8921 31.9468 66.2897 29.7514 65.2164 27.6892C62.0467 21.6097 55.446 18.3345 48.1779 19.2211C40.3204 20.1791 34.2928 26.9471 34.2701 34.8436C34.2604 38.148 34.2668 41.4525 34.2701 44.7569C34.2701 45.0134 34.2977 45.2684 34.3139 45.5461Z" fill="#0074BB"/>
<path d="M22.4716 69.4905C21.0735 69.5019 20.6854 69.903 20.6838 71.3092C20.6838 72.7917 20.6838 74.2726 20.6838 75.786H19.1688C17.7415 73.209 15.8952 72.2315 13.6382 72.855C11.6799 73.3958 10.2802 75.2696 10.3532 77.2539C10.4295 79.3583 11.8487 81.0536 13.9126 81.5082C16.0706 81.984 17.938 80.8896 19.1688 78.3938C19.9677 78.3938 20.791 78.3954 21.6126 78.3938C22.8987 78.3906 23.2526 78.0317 23.2559 76.7262C23.2591 75.216 23.2559 73.7059 23.2559 72.0951H26.104V69.4889C24.8537 69.4889 23.6618 69.4808 22.47 69.4905H22.4716Z" fill="#0074BB"/>
<path d="M87.641 72.8973C85.6729 72.3029 83.5182 73.1506 82.4676 74.9335C81.8798 75.9305 81.7109 75.9987 80.4947 75.6788C80.4947 74.1005 80.4849 72.5059 80.4979 70.913C80.5044 70.1579 80.1618 69.6074 79.4278 69.5701C77.9794 69.4954 76.5245 69.5474 75.0809 69.5474V72.1065H77.9161V72.9525C77.9161 74.258 77.9112 75.5619 77.9177 76.8674C77.9242 77.9895 78.3318 78.3873 79.4684 78.3954C80.1342 78.4003 80.8016 78.4214 81.4641 78.3873C81.8992 78.3646 82.099 78.501 82.2825 78.9248C83.096 80.8084 85.1663 81.8915 87.1068 81.5131C89.2274 81.099 90.6856 79.433 90.8009 77.2896C90.9064 75.3183 89.5879 73.4867 87.6394 72.8989L87.641 72.8973Z" fill="#0074BB"/>
<path d="M13.6853 57.1367C15.6517 57.6644 17.6619 56.8298 18.6865 55.0631C19.0968 54.3541 19.7512 54.0731 20.6497 54.2204C20.6611 54.4672 20.6838 54.7254 20.6838 54.9852C20.6871 56.3703 20.6838 57.757 20.6871 59.1421C20.6887 59.9134 21.0784 60.5061 21.8237 60.5532C23.2462 60.6441 24.6767 60.5791 26.0992 60.5791V58.0071H23.2591C23.2591 57.6758 23.2591 57.4176 23.2591 57.1594C23.2591 55.7743 23.2689 54.3876 23.2543 53.0025C23.2429 51.9925 22.7947 51.5606 21.7766 51.5427C21.218 51.533 20.6546 51.5005 20.0992 51.5508C19.414 51.6142 19.0438 51.408 18.7125 50.7357C17.7967 48.8846 15.6988 48.0223 13.708 48.5371C11.8033 49.0291 10.4442 50.7633 10.4036 52.7541C10.3613 54.8163 11.701 56.6057 13.6853 57.1383V57.1367Z" fill="#0074BB"/>
<path d="M78.7621 60.6197C80.0124 60.6116 80.4898 60.1277 80.4947 58.8709C80.4995 57.3299 80.4947 55.7906 80.4947 54.222C81.4933 53.9833 82.0795 54.1197 82.5585 55.0761C83.4711 56.8964 85.569 57.6677 87.5387 57.1253C89.4418 56.6025 90.7765 54.8536 90.7911 52.8694C90.8041 50.8737 89.4369 49.0762 87.5062 48.5517C85.5576 48.024 83.4694 48.8342 82.5358 50.6464C82.1525 51.3885 81.7222 51.658 80.9542 51.5444C80.7983 51.5216 80.6359 51.5411 80.4752 51.5411C78.0021 51.5411 77.9177 51.6255 77.9177 54.0937V58.0379H75.0679V60.6214C76.3264 60.6214 77.5442 60.6279 78.7621 60.6197Z" fill="#0074BB"/>
<path d="M50.6071 63.2178C49.1635 63.2097 47.9116 64.3577 47.9002 65.699C47.8889 67.0548 49.1035 68.1785 50.5827 68.1818C52.0701 68.185 53.2782 67.0857 53.2847 65.7217C53.2912 64.3756 52.0604 63.2243 50.6055 63.2162L50.6071 63.2178Z" fill="#0074BB"/>
</svg>
