<svg width="101" height="101" viewBox="0 0 101 101" fill="none" xmlns="http://www.w3.org/2000/svg">
<path d="M54.5838 75.4551C55.2873 75.8999 55.928 75.9845 56.7476 75.8685V74.8482C56.7476 68.4827 56.7355 62.1148 56.7524 55.7492C56.7621 52.4806 59.2328 49.9277 62.3926 49.8648C65.6516 49.7995 68.2964 52.3404 68.323 55.638C68.3544 59.7093 68.3303 63.7829 68.3303 68.0137C69.0096 67.5809 69.8122 67.726 69.8074 66.6042C69.7663 50.0099 69.7832 33.4131 69.776 16.8187C69.776 12.4066 66.6597 9.31206 62.2403 9.30722C52.7682 9.29997 43.2961 9.29755 33.8239 9.30722C29.465 9.31206 26.3439 12.4259 26.3415 16.78C26.3318 33.5557 26.3366 50.3338 26.3415 67.1095C26.3415 67.3537 26.3777 67.6003 26.4116 68.05C26.7089 67.5447 26.8927 67.2376 27.074 66.9258C28.4762 64.4985 29.8591 62.0616 31.2879 59.6488C32.6683 57.3134 35.2116 56.2255 37.6945 56.8517C41.4804 57.8066 43.267 61.9068 41.3378 65.3737C39.5367 68.6133 37.6365 71.7972 35.7846 75.0102C35.6299 75.2786 35.4969 75.5614 35.3083 75.9313C39.4497 75.9313 43.4314 75.9386 47.4108 75.9144C47.7057 75.9144 48.02 75.7089 48.2884 75.5397C50.3748 74.2293 52.5071 74.1399 54.5886 75.4575L54.5838 75.4551ZM42.3387 12.2639H53.8078V15.0538H42.3387V12.2639ZM36.5316 12.218H39.2998V15.0345H36.5316V12.218ZM33.5822 38.2386C33.6112 30.2243 40.0903 23.791 48.1361 23.791C56.0924 23.791 62.5715 30.3572 62.5353 38.3933C62.5014 46.2747 55.957 52.7708 48.066 52.7562C40.0492 52.7417 33.5507 46.2312 33.5797 38.241L33.5822 38.2386ZM48.0007 73.0302C47.0361 73.0302 46.0715 73.0495 45.1068 73.0254C42.6965 72.9673 40.8156 71.0454 40.8204 68.6737C40.8253 66.3045 42.7183 64.3849 45.131 64.3486C47.0893 64.3196 49.0499 64.3172 51.0082 64.3486C53.4185 64.3873 55.2994 66.3214 55.2946 68.6979C55.2897 71.0695 53.3992 72.9746 50.984 73.0254C49.9904 73.0471 48.9943 73.0278 48.0007 73.0278V73.0302Z" fill="#0074BB"/>
<path d="M91.4811 75.8008C91.4715 74.2366 90.1225 73.0278 88.5849 73.0375C87.0376 73.0471 85.7805 74.2559 85.7176 75.837C85.6813 76.7412 85.7176 77.6478 85.7055 78.552C85.691 79.6157 85.1374 80.2685 84.2646 80.2709C83.3895 80.2733 82.8237 79.623 82.8165 78.5617C82.8044 77.2344 82.8286 75.9072 82.8092 74.5799C82.7851 72.8779 81.5497 71.6038 79.942 71.5893C78.2883 71.5748 77.0457 72.8561 77.0239 74.6137C77.0094 75.8805 77.0239 77.1474 77.0191 78.4142C77.0143 79.6061 76.4558 80.2951 75.5323 80.2685C74.6353 80.2419 74.1301 79.5891 74.1277 78.4239C74.1228 76.6445 74.1373 74.8652 74.1204 73.0858C74.1083 71.8166 73.5039 70.8834 72.3507 70.3757C70.4602 69.5416 68.3834 70.9148 68.3423 73.0302C68.3037 74.9304 68.3472 76.8307 68.3254 78.7309C68.3133 79.6544 67.7089 80.2661 66.8918 80.2709C66.0722 80.2757 65.4896 79.6665 65.4412 78.7454C65.4291 78.5036 65.4364 78.2619 65.4364 78.0225C65.4364 70.7843 65.4364 63.5436 65.4364 56.3053C65.4364 56.0031 65.4485 55.7009 65.4219 55.4011C65.2962 54.0352 64.1938 52.9182 62.8472 52.7756C61.4764 52.6305 60.1902 53.4598 59.801 54.8064C59.6704 55.2585 59.6535 55.7565 59.6511 56.2327C59.6438 65.0691 59.6414 73.9078 59.6511 82.7441C59.6511 83.6144 59.4528 84.3397 58.5366 84.5718C57.6638 84.7942 57.1368 84.2744 56.7306 83.554C55.8555 82.0067 54.9658 80.4667 54.0592 78.9388C53.3871 77.8074 52.2557 77.2586 51.1025 77.4617C48.9943 77.8315 48.0128 79.9663 49.1104 81.9028C50.8486 84.9707 52.6473 88.0024 54.3759 91.0751C54.7168 91.6795 55.0843 91.885 55.7781 91.8826C67.3584 91.8584 78.9387 91.8657 90.5165 91.8657H91.4932C91.4932 86.4188 91.515 81.1098 91.4787 75.8032L91.4811 75.8008Z" fill="#0074BB"/>
<path d="M35.3591 81.7166C34.4863 80.2709 33.6716 78.7913 32.7312 77.3915C32.0518 76.3786 32.0784 75.5276 32.7022 74.4856C34.7571 71.0454 36.7274 67.5568 38.7365 64.0875C39.3675 62.9972 39.4013 61.9068 38.7075 60.8455C38.045 59.835 37.0514 59.4844 35.8837 59.6222C34.8321 59.7479 34.172 60.4079 33.6668 61.2904C31.0074 65.9128 28.336 70.528 25.667 75.1456C25.505 75.4285 25.3357 75.7065 25.1278 76.0619C24.272 75.5663 23.4766 75.1069 22.6353 74.621C23.0439 73.9175 23.4403 73.3106 23.7498 72.6627C23.89 72.3678 23.9263 71.9858 23.8924 71.6546C23.7691 70.4627 23.4694 69.2757 23.4597 68.0838C23.4162 61.6603 23.4379 55.2343 23.4379 48.8107V47.909C21.192 52.3936 19.05 56.8468 17.1377 61.3967C16.5139 62.8787 16.2552 64.6121 16.2383 66.2368C16.1513 74.4711 16.1972 82.7054 16.1996 90.9398C16.1996 91.2299 16.2262 91.52 16.2407 91.8246H36.4736C36.4736 89.7358 36.4639 87.7461 36.476 85.7564C36.4857 84.2986 36.1085 82.9593 35.3591 81.7166Z" fill="#0074BB"/>
<path d="M16.2432 43.9925V27.3763C16.9225 28.0218 17.4955 28.5658 18.0177 29.0566C18.7405 28.3748 19.3933 27.7583 20.0315 27.1563C18.552 25.6381 17.1256 24.1319 15.6436 22.6814C15.1383 22.1858 14.4155 22.1567 13.9078 22.6499C12.404 24.115 10.9656 25.6477 9.50049 27.1563C10.1242 27.7897 10.7552 28.4328 11.4636 29.1533C11.9785 28.5295 12.4765 27.9275 12.9722 27.3256C13.0906 27.3957 13.2091 27.4658 13.3275 27.5335V43.99H16.2432V43.9925Z" fill="#0074BB"/>
<path d="M79.5866 27.328C79.705 27.3981 79.8235 27.4682 79.9395 27.5359V43.9925H82.8552V27.3763C83.5345 28.0194 84.1075 28.5634 84.6248 29.0541C85.3501 28.3724 86.0029 27.7559 86.6411 27.1563C85.1616 25.6381 83.7328 24.1319 82.2532 22.6814C81.7479 22.1858 81.0251 22.1567 80.5174 22.6523C79.0136 24.1174 77.5751 25.6502 76.1125 27.1563C76.7362 27.7922 77.3672 28.4328 78.0756 29.1557C78.5929 28.5319 79.0886 27.93 79.5866 27.328Z" fill="#0074BB"/>
<path d="M13.3711 49.7874H16.1537V47.0024H13.3711V49.7874Z" fill="#0074BB"/>
<path d="M82.7585 47.0241H79.9541V49.814H82.7585V47.0241Z" fill="#0074BB"/>
<path d="M82.7633 52.8143H79.9806V55.6138H82.7633V52.8143Z" fill="#0074BB"/>
<path d="M59.6414 38.2845C59.6608 31.9311 54.4339 26.6849 48.0926 26.6873C41.6932 26.6897 36.4905 31.8513 36.476 38.2168C36.4615 44.6476 41.64 49.8479 48.0684 49.8576C54.4315 49.8672 59.6245 44.6766 59.6414 38.2869V38.2845ZM49.9299 45.4986C49.8163 45.518 49.7003 45.5349 49.5431 45.5591C49.5238 45.9918 49.502 46.4076 49.4803 46.8936H46.6589C46.6323 46.4778 46.6057 46.0426 46.5791 45.6147C43.7046 44.9498 42.3459 43.5573 42.3073 41.2195H45.0827C45.5783 42.438 45.8394 42.6144 47.1715 42.6169C47.9258 42.6169 48.68 42.6362 49.4319 42.6096C50.3506 42.5758 50.9574 41.9714 50.9477 41.1518C50.9381 40.3322 50.3288 39.7544 49.3981 39.7278C48.5543 39.7036 47.7106 39.7278 46.8644 39.7206C44.3791 39.7061 42.4717 38.0573 42.2782 35.7581C42.08 33.3889 43.6925 31.4427 46.1875 31.0438C46.3011 31.0245 46.4172 31.0076 46.5743 30.9834C46.5937 30.5506 46.6154 30.1348 46.6372 29.6489H49.4585C49.4851 30.0671 49.5117 30.5023 49.5383 30.9302C52.4031 31.5805 53.7667 32.9755 53.8078 35.3254H51.0324C50.5343 34.1021 50.2781 33.928 48.9436 33.928C48.1893 33.928 47.435 33.9087 46.6831 33.9353C45.762 33.9667 45.1576 34.5687 45.1673 35.3907C45.1769 36.2102 45.7862 36.7904 46.7145 36.817C47.5583 36.8412 48.402 36.8195 49.2482 36.8243C51.7383 36.8364 53.6385 38.4779 53.8368 40.7819C54.0398 43.1463 52.4249 45.0949 49.9299 45.4962V45.4986Z" fill="#0074BB"/>
<path d="M50.8607 67.2497C48.9919 67.228 47.1207 67.2256 45.2519 67.2497C44.326 67.2618 43.7216 67.8662 43.7216 68.6906C43.7216 69.5126 44.3284 70.1049 45.2543 70.1315C46.1585 70.1581 47.0627 70.1363 47.9693 70.1363C48.9339 70.1363 49.9009 70.1557 50.8656 70.1315C51.7891 70.1073 52.3983 69.5078 52.3959 68.6882C52.3959 67.8662 51.7867 67.2618 50.8607 67.2522V67.2497Z" fill="#0074BB"/>
</svg>
