<svg width="146" height="43" viewBox="0 0 146 43" fill="none" xmlns="http://www.w3.org/2000/svg">
<g clip-path="url(#clip0_96_2182)">
<path d="M140.593 1.1623C143.096 1.1623 145.133 3.15045 145.133 5.59376V37.2564C145.133 39.6997 143.096 41.6879 140.593 41.6879H5.40741C2.90378 41.6879 0.866536 39.6997 0.866536 37.2564V5.59376C0.866536 3.15045 2.90378 1.1623 5.40741 1.1623H140.593ZM140.593 0.31665H5.40741C2.43469 0.31665 0 2.69266 0 5.59376V37.2564C0 40.1575 2.43469 42.5335 5.40741 42.5335H140.593C143.565 42.5335 146 40.1575 146 37.2564V5.59376C146 2.69266 143.565 0.31665 140.593 0.31665Z" fill="#0074BB"/>
<path d="M10.4742 8.2733C10.1565 8.59784 9.97266 9.10309 9.97266 9.75745V33.0981C9.97266 33.7525 10.1565 34.2578 10.4742 34.5823L10.5526 34.6536L23.9548 21.5795V21.2708L10.5526 8.19678L10.4742 8.2733Z" fill="#0074BB"/>
<path d="M30.0396 25.9395L25.5771 21.5793V21.2706L30.045 16.9104L30.1451 16.9671L35.4362 19.9052C36.9462 20.7389 36.9462 22.111 35.4362 22.9501L30.1451 25.8828L30.0396 25.9395Z" fill="#0074BB"/>
<path d="M29.3337 26.6949L24.7658 22.2371L11.2852 35.3942C11.7867 35.9088 12.6046 35.9707 13.5347 35.4562L29.3337 26.6949Z" fill="#0074BB"/>
<path d="M29.3337 16.1553L13.5347 7.39404C12.6046 6.8848 11.7867 6.94678 11.2852 7.4613L24.7658 20.6132L29.3337 16.1553Z" fill="#0074BB"/>
<path d="M51.2811 11.1282C51.2811 12.0095 51.0107 12.7154 50.4781 13.2417C49.8657 13.8658 49.0681 14.1797 48.0907 14.1797C47.1566 14.1797 46.359 13.8605 45.7047 13.2312C45.049 12.5926 44.7219 11.809 44.7219 10.871C44.7219 9.93297 45.049 9.14932 45.7047 8.51606C46.359 7.88152 47.1566 7.56226 48.0907 7.56226C48.5557 7.56226 48.9991 7.6559 49.4223 7.83004C49.8441 8.00553 50.1874 8.243 50.4362 8.53588L49.8711 9.09262C49.4371 8.59258 48.8464 8.34591 48.0907 8.34591C47.4094 8.34591 46.8186 8.5781 46.3171 9.04641C45.821 9.51608 45.5722 10.1243 45.5722 10.871C45.5722 11.6177 45.821 12.2311 46.3171 12.7008C46.8186 13.1639 47.4094 13.4014 48.0907 13.4014C48.814 13.4014 49.4223 13.1639 49.9022 12.6955C50.2186 12.3855 50.3983 11.9581 50.4457 11.4119H48.0907V10.6494H51.2324C51.2703 10.8142 51.2811 10.9739 51.2811 11.1282Z" fill="#0074BB" stroke="#0074BB" stroke-width="0.16" stroke-miterlimit="10"/>
<path d="M56.2656 8.4843H53.3144V10.4896H55.9749V11.2521H53.3144V13.2574H56.2656V14.0345H52.479V7.70728H56.2656V8.4843Z" fill="#0074BB" stroke="#0074BB" stroke-width="0.16" stroke-miterlimit="10"/>
<path d="M59.7831 14.0345H58.9475V8.4843H57.1372V7.70728H61.5943V8.4843H59.7831V14.0345Z" fill="#0074BB" stroke="#0074BB" stroke-width="0.16" stroke-miterlimit="10"/>
<path d="M64.8198 14.0345V7.70728H65.6542V14.0345H64.8198Z" fill="#0074BB" stroke="#0074BB" stroke-width="0.16" stroke-miterlimit="10"/>
<path d="M69.3512 14.0345H68.5227V8.4843H66.7056V7.70728H71.1682V8.4843H69.3512V14.0345Z" fill="#0074BB" stroke="#0074BB" stroke-width="0.16" stroke-miterlimit="10"/>
<path d="M79.6063 13.2206C78.9672 13.8605 78.175 14.1797 77.2298 14.1797C76.2793 14.1797 75.4872 13.8605 74.8481 13.2206C74.2101 12.5821 73.8923 11.7984 73.8923 10.871C73.8923 9.94352 74.2101 9.15987 74.8481 8.52134C75.4872 7.88152 76.2793 7.56226 77.2298 7.56226C78.1697 7.56226 78.9619 7.88152 79.601 8.52662C80.2448 9.17043 80.562 9.9488 80.562 10.871C80.562 11.7984 80.2448 12.5821 79.6063 13.2206ZM75.4655 12.6903C75.9469 13.1639 76.5321 13.4014 77.2298 13.4014C77.9223 13.4014 78.5127 13.1639 78.9888 12.6903C79.4685 12.2167 79.7118 11.6084 79.7118 10.871C79.7118 10.1335 79.4685 9.52534 78.9888 9.05169C78.5127 8.5781 77.9223 8.34063 77.2298 8.34063C76.5321 8.34063 75.9469 8.5781 75.4655 9.05169C74.9859 9.52534 74.7425 10.1335 74.7425 10.871C74.7425 11.6084 74.9859 12.2167 75.4655 12.6903Z" fill="#0074BB" stroke="#0074BB" stroke-width="0.16" stroke-miterlimit="10"/>
<path d="M81.7341 14.0345V7.70728H82.7479L85.9007 12.6282H85.9371L85.9007 11.4118V7.70728H86.7351V14.0345H85.8644L82.5632 8.87088H82.5263L82.5632 10.0925V14.0345H81.7341Z" fill="#0074BB" stroke="#0074BB" stroke-width="0.16" stroke-miterlimit="10"/>
<path d="M73.6866 23.2747C71.1466 23.2747 69.0715 25.1612 69.0715 27.7642C69.0715 30.346 71.1466 32.2524 73.6866 32.2524C76.2326 32.2524 78.3076 30.346 78.3076 27.7642C78.3076 25.1612 76.2326 23.2747 73.6866 23.2747ZM73.6866 30.4845C72.2929 30.4845 71.0938 29.3618 71.0938 27.7642C71.0938 26.1454 72.2929 25.0425 73.6866 25.0425C75.0804 25.0425 76.2853 26.1454 76.2853 27.7642C76.2853 29.3618 75.0804 30.4845 73.6866 30.4845ZM63.6167 23.2747C61.0714 23.2747 59.0016 25.1612 59.0016 27.7642C59.0016 30.346 61.0714 32.2524 63.6167 32.2524C66.1609 32.2524 68.2319 30.346 68.2319 27.7642C68.2319 25.1612 66.1609 23.2747 63.6167 23.2747ZM63.6167 30.4845C62.2218 30.4845 61.0187 29.3618 61.0187 27.7642C61.0187 26.1454 62.2218 25.0425 63.6167 25.0425C65.0105 25.0425 66.2096 26.1454 66.2096 27.7642C66.2096 29.3618 65.0105 30.4845 63.6167 30.4845ZM51.634 24.6507V26.5584H56.302C56.1654 27.6244 55.8004 28.408 55.2408 28.9542C54.5595 29.6138 53.4982 30.346 51.634 30.346C48.7613 30.346 46.5119 28.0835 46.5119 25.28C46.5119 22.4765 48.7613 20.2139 51.634 20.2139C53.1873 20.2139 54.3175 20.8063 55.1516 21.5741L56.5291 20.2298C55.3625 19.1427 53.8105 18.3076 51.634 18.3076C47.6947 18.3076 44.384 21.4356 44.384 25.28C44.384 29.1243 47.6947 32.2524 51.634 32.2524C53.7632 32.2524 55.3625 31.5716 56.6197 30.2946C57.908 29.0373 58.3095 27.2694 58.3095 25.842C58.3095 25.3987 58.2716 24.9911 58.204 24.6507H51.634ZM100.633 26.1296C100.253 25.1256 99.0813 23.2747 96.6937 23.2747C94.3283 23.2747 92.3588 25.094 92.3588 27.7642C92.3588 30.2787 94.3078 32.2524 96.9212 32.2524C99.0338 32.2524 100.253 30.9951 100.755 30.2628L99.1868 29.2431C98.6638 29.9898 97.9514 30.4845 96.9212 30.4845C95.898 30.4845 95.1639 30.0267 94.6931 29.1243L100.846 26.6402L100.633 26.1296ZM94.3606 27.6244C94.3078 25.8935 95.7379 25.0069 96.7628 25.0069C97.5661 25.0069 98.2475 25.3987 98.4744 25.9594L94.3606 27.6244ZM89.3602 31.9793H91.3825V18.7865H89.3602V31.9793ZM86.048 24.2747H85.9805C85.5261 23.7496 84.6595 23.2747 83.5619 23.2747C81.2587 23.2747 79.1526 25.2483 79.1526 27.7787C79.1526 30.2946 81.2587 32.2524 83.5619 32.2524C84.6595 32.2524 85.5261 31.7734 85.9805 31.2325H86.048V31.8764C86.048 33.5928 85.1087 34.5149 83.5929 34.5149C82.3575 34.5149 81.5912 33.6442 81.2745 32.912L79.5161 33.6284C80.0227 34.8183 81.3654 36.2827 83.5929 36.2827C85.9641 36.2827 87.9653 34.9212 87.9653 31.6086V23.5478H86.048V24.2747ZM83.7348 30.4845C82.3411 30.4845 81.1749 29.346 81.1749 27.7787C81.1749 26.1969 82.3411 25.0425 83.7348 25.0425C85.1087 25.0425 86.1916 26.1969 86.1916 27.7787C86.1916 29.346 85.1087 30.4845 83.7348 30.4845ZM110.102 18.7865H105.265V31.9793H107.282V26.9805H110.102C112.341 26.9805 114.538 25.3987 114.538 22.8829C114.538 20.3683 112.336 18.7865 110.102 18.7865ZM110.154 25.1454H107.282V20.6216H110.154C111.66 20.6216 112.52 21.8419 112.52 22.8829C112.52 23.904 111.66 25.1454 110.154 25.1454ZM122.622 23.2496C121.165 23.2496 119.65 23.8776 119.026 25.2694L120.816 26.0016C121.202 25.2694 121.91 25.0319 122.659 25.0319C123.705 25.0319 124.767 25.6454 124.783 26.7285V26.8671C124.418 26.6613 123.636 26.3565 122.675 26.3565C120.747 26.3565 118.783 27.3922 118.783 29.3249C118.783 31.0927 120.362 32.2313 122.137 32.2313C123.494 32.2313 124.243 31.6336 124.714 30.9384H124.783V31.9581H126.731V26.8974C126.731 24.5584 124.941 23.2496 122.622 23.2496ZM122.379 30.4793C121.719 30.4793 120.8 30.16 120.8 29.3618C120.8 28.3407 121.946 27.9489 122.939 27.9489C123.827 27.9489 124.243 28.1402 124.783 28.3922C124.625 29.6138 123.547 30.4793 122.379 30.4793ZM133.828 23.5385L131.51 29.2576H131.44L129.044 23.5385H126.869L130.47 31.5307L128.415 35.978H130.523L136.072 23.5385H133.828ZM115.647 31.9793H117.669V18.7865H115.647V31.9793Z" fill="#0074BB"/>
</g>
<defs>
<clipPath id="clip0_96_2182">
<rect width="146" height="42.2169" fill="white" transform="translate(0 0.31665)"/>
</clipPath>
</defs>
</svg>
