<svg width="29" height="28" viewBox="0 0 29 28" fill="none" xmlns="http://www.w3.org/2000/svg">
<path d="M21.6719 8.92187L16.0469 14.5469L21.625 20.125C22.0938 20.5469 22.0938 21.25 21.625 21.6719C21.2031 22.1406 20.5 22.1406 20.0781 21.6719L14.4531 16.0938L8.875 21.6719C8.45313 22.1406 7.75 22.1406 7.32813 21.6719C6.85938 21.25 6.85938 20.5469 7.32813 20.0781L12.9063 14.5L7.32813 8.92188C6.85938 8.5 6.85938 7.79688 7.32813 7.32812C7.75 6.90625 8.45312 6.90625 8.92188 7.32812L14.5 12.9531L20.0781 7.375C20.5 6.90625 21.2031 6.90625 21.6719 7.375C22.0938 7.79687 22.0938 8.5 21.6719 8.92187Z" fill="#0F0F0F"/>
</svg>
