<svg width="30" height="31" viewBox="0 0 30 31" fill="none" xmlns="http://www.w3.org/2000/svg">
<path d="M11.1327 0.172607C12.8678 0.482445 14.355 1.41196 15.9662 2.03783C16.5672 2.27331 17.2117 2.44062 17.85 2.55836C18.7051 2.71947 19.5231 2.52118 20.2791 2.0936C20.843 1.77137 21.2024 1.98206 21.2024 2.62652C21.2024 5.00608 21.2024 7.39183 21.2024 9.77138C21.2024 10.0812 21.0909 10.2919 20.8554 10.484C19.6532 11.4507 18.2961 11.6366 16.8771 11.1533C15.9042 10.8248 14.9685 10.3849 14.0266 9.96968C13.1528 9.58548 12.2915 9.18888 11.3434 9.03397C10.6679 8.92862 10.0049 8.95341 9.31084 9.18269C9.31084 9.02777 9.31084 8.91623 9.31084 8.79849C9.31084 6.44992 9.31703 4.09515 9.30464 1.74658C9.30464 1.34379 9.1993 0.934808 9.13733 0.463855C9.41618 0.3771 9.7694 0.271755 10.1226 0.172607C10.4572 0.172607 10.7981 0.172607 11.1327 0.172607Z" fill="#0074BB"/>
<path d="M6.21866 19.7729C6.21866 19.9588 6.21866 20.0704 6.21866 20.1757C6.21866 20.752 6.20007 21.3283 6.21866 21.9046C6.23725 22.4004 6.18148 22.7784 5.71052 23.1316C4.96072 23.6893 5.01649 24.6808 5.73531 25.3252C6.41695 25.9387 7.25351 26.0688 8.12726 26.0007C8.66638 25.9573 9.18071 25.8024 9.62687 25.4802C10.5998 24.7613 10.5936 23.6149 9.59589 22.9333C9.3728 22.7846 9.31084 22.6296 9.31703 22.3756C9.32943 21.3345 9.32943 20.2935 9.31703 19.2462C9.31703 19.0355 9.379 18.9612 9.58969 18.924C12.7067 18.3105 15.8546 18.1742 19.015 18.3229C20.7376 18.4035 22.4604 18.5646 24.1769 18.7133C24.5177 18.7443 24.8585 18.8434 25.1807 18.9612C25.4968 19.0789 25.7074 19.3206 25.7136 19.68C25.7136 20.027 25.5339 20.2749 25.2427 20.4112C24.9019 20.5723 24.5425 20.6901 24.1954 20.8264C24.0219 20.8946 23.8422 20.9565 23.6749 21.0433C23.0986 21.3469 22.9251 21.886 23.1978 22.4809C23.4085 22.9333 23.7555 23.2679 24.183 23.4848C25.0382 23.9186 25.9181 24.309 26.7919 24.7056C27.1699 24.8791 27.5665 25.0092 27.9569 25.1641C28.5642 25.412 29.0847 25.7838 29.5185 26.2733C30.0514 26.8744 29.9832 27.5127 29.3326 27.9836C28.7191 28.4298 28.0002 28.6467 27.2752 28.814C22.8136 29.8241 18.2961 30.3446 13.7167 30.1215C10.4077 29.9666 7.14197 29.4895 3.96923 28.5166C2.94057 28.2005 1.96768 27.7544 1.13732 27.0417C-0.275541 25.821 -0.380886 24.1602 0.870858 22.7722C1.67644 21.8798 2.6989 21.2849 3.77714 20.7892C4.55793 20.4298 5.3635 20.1262 6.21246 19.7729H6.21866ZM18.6308 25.4925C18.6308 26.6327 19.5417 27.5623 20.6757 27.5685C21.8097 27.5747 22.7454 26.6575 22.7516 25.5235C22.7578 24.3647 21.8469 23.4414 20.6881 23.4414C19.5417 23.4414 18.6308 24.3523 18.6308 25.4987V25.4925Z" fill="#0074BB"/>
<path d="M8.28218 12.6839C8.28218 16.3337 8.28218 19.9898 8.28218 23.6397C8.28218 23.7265 8.28218 23.8194 8.28218 23.9062C8.26978 24.247 8.0529 24.4763 7.76165 24.4701C7.4766 24.4639 7.2721 24.2408 7.25971 23.9124C7.25971 23.8318 7.25971 23.7513 7.25971 23.6769C7.25971 16.3461 7.25971 9.00918 7.25971 1.67842C7.25971 1.56068 7.25351 1.43675 7.26591 1.31901C7.29689 1.05874 7.51998 0.879037 7.78024 0.885234C8.0529 0.885234 8.25739 1.06494 8.26359 1.34379C8.28218 2.11839 8.28837 2.89298 8.28837 3.66758C8.28837 6.673 8.28837 9.67843 8.28837 12.6901H8.28218V12.6839Z" fill="#0074BB"/>
</svg>
