<svg width="30" height="31" viewBox="0 0 30 31" fill="none" xmlns="http://www.w3.org/2000/svg">
<path d="M15 0.172607C6.71515 0.172607 0 6.88776 0 15.1726C0 23.4575 6.71515 30.1726 15 30.1726C23.2848 30.1726 30 23.4575 30 15.1726C30 6.88776 23.2848 0.172607 15 0.172607ZM15 29.0211C7.35152 29.0211 1.14545 22.8211 1.14545 15.1726C1.14545 7.52412 7.35152 1.31806 15 1.31806C22.6485 1.31806 28.8545 7.51806 28.8545 15.1726C28.8545 22.8272 22.6545 29.0272 15 29.0272V29.0211Z" fill="#0074BB"/>
<path d="M4.93939 16.4817L9.44242 22.8635L6.50909 25.3302L1.8303 18.4817L4.93939 16.4817Z" fill="#0074BB"/>
<path d="M5.89091 16.7787L9.31515 21.6272C9.31515 21.6272 10.2061 20.9544 10.5697 20.712C10.9333 20.4696 11.2061 20.2999 12.1758 20.2999C13.1455 20.2999 15.3636 20.312 15.7152 20.312C16.0667 20.312 17.2303 20.1847 17.7152 20.0878C18.5394 19.9302 20.9576 19.0756 21.8606 18.6756C22.7758 18.2696 23.7455 17.7665 24.4121 17.2575C25.0788 16.7484 25.9939 15.9787 26.2848 15.7181C26.5818 15.4575 26.9636 15.2453 27.2667 14.8756C27.4848 14.6029 27.9273 14.0453 27.5879 13.5908C27.2424 13.1362 26.6121 13.3423 25.7758 13.7726C24.9394 14.2029 22.9939 15.1302 22.0424 15.7726C22.0424 15.7726 22.1455 17.0029 21.1636 17.5726C20.1818 18.1484 18.7333 18.2817 18 18.2878C17.2667 18.2938 15.8 18.1544 15.3818 18.0817C14.9697 18.009 13.3636 17.8514 12.9758 17.8514C12.5879 17.8514 13.8182 17.6453 14.9697 17.7241C16.1212 17.8029 17.2727 17.9423 17.8303 17.9423C18.3879 17.9423 21.497 17.7665 21.497 16.2029C21.497 15.7787 21.303 15.3241 19.9394 15.2393C18.5758 15.1544 17.2121 15.0938 16.7939 15.0817C16.3758 15.0635 15.0303 14.4332 13.9818 14.1302C12.9394 13.8272 12.3394 13.6272 11.2788 13.6211C10.2182 13.615 8.74545 13.9484 8 14.7847C7.26061 15.6211 6.52727 16.4393 5.87879 16.7847L5.89091 16.7787Z" fill="#0074BB"/>
<path d="M24.4242 8.47564L20.3455 4.39685C19.9152 3.96655 19.2182 3.96655 18.7879 4.39685L16.5939 6.59079C16.1758 7.00897 16.1697 7.6817 16.5636 8.112H20.6606C21.5091 8.112 22.2 8.80291 22.2 9.6514V12.2514C22.2 12.2514 22.2182 12.2332 22.2303 12.2272L24.4242 10.0332C24.8545 9.60291 24.8545 8.90594 24.4242 8.47564Z" fill="#0074BB"/>
<path d="M19.3185 5.05152L18.9628 5.40721C18.7971 5.57289 18.7971 5.84151 18.9628 6.00718L19.777 6.82143C19.9427 6.9871 20.2113 6.9871 20.377 6.82142L20.7327 6.46573C20.8984 6.30005 20.8984 6.03144 20.7327 5.86576L19.9185 5.05152C19.7528 4.88584 19.4842 4.88584 19.3185 5.05152Z" fill="#0074BB"/>
<path d="M20.6667 8.54836H14.897C14.2878 8.54836 13.7939 9.04221 13.7939 9.6514V12.7484C13.7939 13.3576 14.2878 13.8514 14.897 13.8514H20.6667C21.2759 13.8514 21.7697 13.3576 21.7697 12.7484V9.6514C21.7697 9.04221 21.2759 8.54836 20.6667 8.54836Z" fill="#0074BB"/>
<path d="M20.6485 8.92412C21.0242 8.92412 21.3273 9.20897 21.3636 9.57867H14.1576C14.1939 9.21503 14.497 8.92412 14.8727 8.92412H20.6485Z" fill="#0074BB"/>
<path d="M21.3879 12.7544C21.3879 13.1544 21.0606 13.4817 20.6606 13.4817H14.903C14.503 13.4817 14.1758 13.1544 14.1758 12.7544V10.5665H21.3939V12.7544H21.3879Z" fill="#0074BB"/>
<path d="M20.9152 11.4817H14.6424V12.1726H20.9152V11.4817Z" fill="#0074BB"/>
</svg>
