<svg width="135" height="32" viewBox="0 0 135 32" fill="none" xmlns="http://www.w3.org/2000/svg">
<g clip-path="url(#clip0_96_1914)">
<path d="M46.9215 17.9726L48.5558 11.459H51.9548L48.5782 21.8106H45.2871L41.9106 11.459H45.3185L46.9215 17.9726Z" fill="white"/>
<path d="M64.7107 21.8061H61.3699V15.9884H56.4223V21.8061H53.0637V7.87671H56.4223V13.4072H61.3699V7.87671H64.7107V21.8061Z" fill="white"/>
<path d="M72.5145 21.8062C72.3978 21.5951 72.2989 21.2854 72.2091 20.8769C71.6166 21.6221 70.7858 21.9946 69.7217 21.9946C68.7474 21.9946 67.9166 21.6984 67.2343 21.1104C66.5519 20.5223 66.2104 19.7771 66.2104 18.8883C66.2104 17.766 66.6234 16.9176 67.4542 16.343C68.2849 15.7684 69.4883 15.4811 71.0735 15.4811H72.0698V14.9335C72.0698 13.9773 71.6569 13.5014 70.8353 13.5014C70.0674 13.5014 69.6856 13.8785 69.6856 14.6372H66.4621C66.4621 13.6361 66.8885 12.8236 67.737 12.1997C68.5904 11.5757 69.6771 11.2615 70.9971 11.2615C72.3172 11.2615 73.3587 11.5847 74.1266 12.2266C74.8895 12.873 75.2848 13.7528 75.3025 14.8751V19.4584C75.3165 20.4101 75.4644 21.1373 75.7429 21.64V21.8017H72.5145V21.8062ZM70.4987 19.7008C70.9025 19.7008 71.2348 19.6155 71.4999 19.4404C71.7644 19.2698 71.9531 19.0723 72.0698 18.8568V17.2004H71.1315C70.0094 17.2004 69.448 17.7032 69.448 18.7132C69.448 19.005 69.5464 19.2429 69.7443 19.4269C69.9373 19.611 70.1933 19.7008 70.4987 19.7008Z" fill="white"/>
<path d="M80.0489 11.4546L80.1521 12.6711C80.8656 11.7329 81.854 11.2661 83.1063 11.2661C84.1838 11.2661 84.9877 11.5893 85.5222 12.2312C86.0561 12.8776 86.3304 13.8428 86.3481 15.1401V21.8063H83.1154V15.2748C83.1154 14.754 83.0122 14.368 82.8008 14.1211C82.5901 13.8742 82.2083 13.753 81.6518 13.753C81.0183 13.753 80.5516 13.9999 80.2462 14.4982V21.8063H77.0227V11.4546H80.0489Z" fill="white"/>
<path d="M87.731 16.5541C87.731 14.9157 88.0859 13.6228 88.7951 12.6802C89.5043 11.7375 90.4927 11.2661 91.7632 11.2661C92.6881 11.2661 93.4645 11.6297 94.0979 12.3569V7.11377H97.3306V21.8062H94.4303L94.2684 20.6975C93.6038 21.5638 92.7644 21.9993 91.7406 21.9993C90.5104 21.9993 89.5318 21.528 88.8134 20.5853C88.0901 19.6381 87.731 18.2959 87.731 16.5541ZM90.9551 16.7562C90.9551 18.5922 91.489 19.5124 92.5622 19.5124C93.2763 19.5124 93.7882 19.2116 94.0931 18.6146V14.6733C93.8017 14.0628 93.2941 13.753 92.58 13.753C91.5837 13.753 91.0449 14.5565 90.9636 16.1636L90.9551 16.7562Z" fill="white"/>
<path d="M99.1357 8.78809C99.1357 8.33026 99.3019 7.95316 99.6342 7.66139C99.9665 7.36957 100.397 7.22144 100.927 7.22144C101.457 7.22144 101.888 7.36957 102.22 7.66139C102.552 7.95316 102.718 8.33026 102.718 8.78809C102.718 9.24598 102.552 9.62308 102.22 9.91485C101.888 10.2066 101.457 10.3548 100.927 10.3548C100.397 10.3548 99.9665 10.2066 99.6342 9.91485C99.3019 9.62308 99.1357 9.24598 99.1357 8.78809ZM102.561 21.8062H99.3288V11.4546H102.561V21.8062Z" fill="white"/>
<path d="M108.924 19.5124C109.378 19.5124 109.728 19.3912 109.974 19.1443C110.222 18.8974 110.343 18.5562 110.338 18.1163H113.36C113.36 19.252 112.952 20.1812 112.139 20.9084C111.326 21.6357 110.28 21.9993 108.996 21.9993C107.492 21.9993 106.302 21.528 105.435 20.5853C104.569 19.6426 104.133 18.3362 104.133 16.6619V16.5272C104.133 15.4813 104.326 14.5566 104.712 13.7575C105.098 12.9584 105.655 12.3435 106.382 11.9125C107.11 11.4815 107.972 11.2661 108.965 11.2661C110.312 11.2661 111.38 11.6387 112.17 12.3839C112.96 13.129 113.355 14.139 113.355 15.4184H110.334C110.334 14.8842 110.203 14.4712 109.943 14.1839C109.683 13.8966 109.332 13.753 108.893 13.753C108.057 13.753 107.568 14.2872 107.429 15.3511C107.384 15.6877 107.362 16.1546 107.362 16.7472C107.362 17.7886 107.487 18.5069 107.734 18.9108C107.985 19.3104 108.381 19.5124 108.924 19.5124Z" fill="white"/>
<path d="M120.557 21.8062C120.441 21.5951 120.342 21.2854 120.252 20.8769C119.66 21.6221 118.829 21.9946 117.765 21.9946C116.79 21.9946 115.96 21.6984 115.277 21.1104C114.595 20.5223 114.253 19.7771 114.253 18.8883C114.253 17.766 114.666 16.9176 115.497 16.343C116.328 15.7684 117.531 15.4811 119.116 15.4811H120.113V14.9335C120.113 13.9773 119.7 13.5014 118.878 13.5014C118.115 13.5014 117.729 13.8785 117.729 14.6372H114.505C114.505 13.6361 114.931 12.8236 115.78 12.1997C116.633 11.5757 117.72 11.2615 119.04 11.2615C120.36 11.2615 121.402 11.5847 122.17 12.2266C122.933 12.873 123.328 13.7528 123.345 14.8751V19.4584C123.359 20.4101 123.507 21.1373 123.786 21.64V21.8017H120.557V21.8062ZM118.542 19.7008C118.945 19.7008 119.278 19.6155 119.543 19.4404C119.807 19.2698 119.996 19.0723 120.113 18.8568V17.2004H119.175C118.052 17.2004 117.491 17.7032 117.491 18.7132C117.491 19.005 117.589 19.2429 117.787 19.4269C117.98 19.611 118.236 19.7008 118.542 19.7008Z" fill="white"/>
<path d="M134.741 16.7066C134.741 18.3137 134.377 19.5976 133.655 20.5582C132.932 21.5188 131.953 21.9991 130.723 21.9991C129.771 21.9991 128.99 21.6535 128.379 20.9577V25.7879H125.155V11.4545H128.168L128.262 12.4107C128.882 11.643 129.695 11.2615 130.7 11.2615C131.976 11.2615 132.968 11.7328 133.677 12.671C134.387 13.6092 134.741 14.9065 134.741 16.5495V16.7066ZM131.517 16.5046C131.517 14.6686 130.983 13.7483 129.91 13.7483C129.142 13.7483 128.635 14.0222 128.379 14.5698V18.6459C128.657 19.2205 129.178 19.5078 129.928 19.5078C130.956 19.5078 131.486 18.6234 131.517 16.8503V16.5046Z" fill="white"/>
<path fill-rule="evenodd" clip-rule="evenodd" d="M20.4261 0.716797C23.9283 0.775154 27.0937 1.81211 29.8551 3.99377C31.9429 5.64572 33.5054 7.70617 34.5606 10.1482C35.0635 11.3109 35.4137 12.5184 35.6202 13.7708C35.8088 14.9245 35.8716 16.0872 35.7818 17.2498C35.5798 19.9163 34.7177 22.3583 33.2315 24.5803C31.6062 27.0044 29.5093 28.9077 26.8961 30.232C26.3753 30.4968 25.832 30.7079 25.2528 30.8066C25.1675 30.8201 25.0822 30.8246 24.979 30.8246C25.0239 30.7393 25.0957 30.7034 25.154 30.654C25.9128 30.021 26.6896 29.415 27.4215 28.7551C28.297 27.965 28.984 27.0358 29.5632 26.0123C30.4253 24.4816 31.0539 22.8655 31.4176 21.1463C31.5792 20.3786 31.6914 19.602 31.7543 18.8165C31.8082 18.1656 31.8307 17.5101 31.7992 16.8593C31.7319 15.3914 31.5388 13.9504 30.9416 12.5902C30.7441 12.1368 30.4972 11.7104 30.1469 11.3557C29.4914 10.6913 28.728 10.6689 28.0231 11.2839C27.6236 11.6296 27.3137 12.0515 27.0578 12.5094C26.4382 13.6137 25.8365 14.7314 25.1855 15.8223C24.1617 17.5461 23.0886 19.2384 21.8404 20.8141C21.2073 21.6176 20.5383 22.3852 19.7481 23.0406C19.2452 23.4581 18.7109 23.8307 18.0553 23.9833C17.4312 24.1314 16.9014 23.9564 16.4614 23.4985C16.0887 23.1079 15.7969 22.6591 15.4961 22.2102C14.5037 20.7153 13.5025 19.2295 12.407 17.811C10.5301 15.3824 8.44677 13.1424 6.17932 11.073C5.23643 10.211 4.28455 9.35811 3.2743 8.57703C2.2865 7.80944 1.26727 7.08222 0.261514 6.33703C0.239063 6.31907 0.216614 6.30112 0.176204 6.27418C0.252534 6.26072 0.301924 6.29214 0.346824 6.30561C2.35834 6.95202 4.27557 7.81838 6.13894 8.806C8.73412 10.1796 11.1857 11.7732 13.4307 13.6676C14.2748 14.3813 15.0156 15.1983 15.7969 15.9794C16.403 16.5854 16.9957 17.2004 17.5974 17.8154C17.6064 17.8244 17.6153 17.8289 17.6288 17.8379C17.6513 17.775 17.6064 17.7436 17.5794 17.7077C15.9495 15.4767 14.2568 13.295 12.3755 11.2704C10.7187 9.48831 8.90925 7.87229 6.97405 6.39539C4.79641 4.73894 2.49753 3.25308 0.185184 1.78967C0.131304 1.75824 0.0819141 1.72233 0.0415039 1.66397C0.333354 1.74029 0.625204 1.81211 0.912565 1.89292C3.82657 2.70094 6.6283 3.80523 9.34925 5.11602C9.46599 5.16989 9.52885 5.16091 9.61864 5.07562C10.4628 4.24964 11.3787 3.52242 12.3935 2.91641C13.9426 1.99167 15.5993 1.34526 17.3729 1.00409C18.0823 0.869423 18.7917 0.779643 19.5101 0.743731C19.537 0.743731 19.5685 0.752709 19.5819 0.716797C19.8648 0.716797 20.1432 0.716797 20.4261 0.716797Z" fill="white"/>
<path fill-rule="evenodd" clip-rule="evenodd" d="M1.35707 11.1897C1.89138 11.3513 2.38977 11.5892 2.87918 11.8496C4.10045 12.4915 5.2005 13.304 6.24667 14.2018C7.82715 15.5575 9.24599 17.0703 10.5661 18.6729C12.4114 20.9174 14.0458 23.3055 15.4691 25.8373C16.3896 27.4758 17.2112 29.1547 17.8219 30.9368C17.8713 31.085 17.9117 31.2421 17.97 31.3902C18.006 31.489 17.979 31.5069 17.8847 31.4979C17.4133 31.4441 16.9508 31.3633 16.4883 31.26C14.4274 30.8111 12.5237 30.0031 10.804 28.7731C8.25371 26.9551 6.43977 24.5624 5.32173 21.6446C4.9356 20.639 4.6662 19.6021 4.50456 18.5382C4.36986 17.6628 4.29353 16.783 4.31149 15.8987C4.32047 15.3779 4.35639 14.8572 4.44619 14.3409C4.46864 14.2108 4.43271 14.112 4.34741 14.0133C3.88045 13.4611 3.35961 12.9628 2.8253 12.478C2.36283 12.0606 1.88689 11.6565 1.39748 11.266C1.37503 11.2481 1.35707 11.2256 1.33911 11.2031C1.34809 11.1986 1.35258 11.1942 1.35707 11.1897Z" fill="white"/>
<path fill-rule="evenodd" clip-rule="evenodd" d="M1.3436 11.2032C1.33013 11.1987 1.30319 11.1987 1.31666 11.1763C1.32564 11.1628 1.34809 11.1673 1.36156 11.1853C1.35258 11.1943 1.34809 11.1987 1.3436 11.2032Z" fill="white"/>
</g>
<defs>
<clipPath id="clip0_96_1914">
<rect width="135" height="31" fill="white" transform="translate(0 0.5)"/>
</clipPath>
</defs>
</svg>
