<svg width="80" height="80" viewBox="0 0 80 80" fill="none" xmlns="http://www.w3.org/2000/svg">
<path d="M53.1003 61.1047C52.9849 61.102 52.8703 61.1247 52.7646 61.1712C52.6589 61.2177 52.5648 61.287 52.4888 61.374C52.3356 61.5461 52.2529 61.7697 52.2572 62.0001C52.2507 62.2362 52.3343 62.466 52.4909 62.6429C52.5678 62.7329 52.6641 62.8045 52.7725 62.8522C52.8809 62.8999 52.9987 62.9225 53.117 62.9184C53.2317 62.9203 53.3452 62.8963 53.4493 62.8483C53.5534 62.8002 53.6453 62.7293 53.7181 62.6408C53.8698 62.4679 53.9517 62.2447 53.9477 62.0147C53.9507 61.7849 53.869 61.562 53.7181 61.3886C53.6436 61.2973 53.5492 61.2242 53.4421 61.175C53.3351 61.1258 53.2181 61.1018 53.1003 61.1047Z" fill="white"/>
<path d="M59.5619 61.4053L59.2446 62.4613H59.8916L59.5744 61.4053H59.5619Z" fill="white"/>
<path d="M34.889 61.1047C34.7735 61.1017 34.6588 61.1242 34.553 61.1708C34.4473 61.2173 34.3532 61.2867 34.2775 61.3739C34.1237 61.5459 34.0402 61.7694 34.0437 62C34.038 62.2365 34.1223 62.4662 34.2796 62.6428C34.3564 62.733 34.4526 62.8047 34.561 62.8524C34.6695 62.9001 34.7873 62.9227 34.9057 62.9183C35.0203 62.9203 35.1339 62.8963 35.2379 62.8483C35.342 62.8002 35.4339 62.7293 35.5067 62.6408C35.6577 62.4676 35.7388 62.2444 35.7342 62.0147C35.7406 61.7815 35.6595 61.5544 35.5067 61.3781C35.4311 61.2888 35.3362 61.2178 35.2292 61.1705C35.1222 61.1231 35.0059 61.1006 34.889 61.1047Z" fill="white"/>
<path d="M13.038 61.2324C12.9324 61.163 12.8073 61.1293 12.6811 61.1364H12.3931V61.9963H12.6727C13.0171 61.9963 13.1903 61.8481 13.1903 61.5538C13.1944 61.4917 13.1826 61.4296 13.1559 61.3733C13.1292 61.3171 13.0886 61.2686 13.038 61.2324Z" fill="white"/>
<path d="M9.40868 61.136H9.06641V62.839H9.4045C9.51253 62.847 9.62095 62.8299 9.72125 62.7889C9.82155 62.748 9.91101 62.6844 9.98261 62.6031C10.1113 62.4263 10.1741 62.2099 10.16 61.9916C10.1728 61.7735 10.1102 61.5576 9.98261 61.3802C9.91269 61.2974 9.82434 61.2322 9.72467 61.1898C9.625 61.1474 9.51677 61.129 9.40868 61.136Z" fill="white"/>
<path d="M66.6011 61.1048C66.4856 61.1017 66.3709 61.1243 66.2652 61.1708C66.1595 61.2174 66.0654 61.2868 65.9896 61.374C65.8349 61.5454 65.7514 61.7693 65.7559 62.0001C65.7502 62.2365 65.8345 62.4663 65.9917 62.6429C66.0685 62.7331 66.1647 62.8047 66.2732 62.8524C66.3816 62.9002 66.4994 62.9227 66.6178 62.9184C66.7324 62.9203 66.846 62.8964 66.9501 62.8483C67.0542 62.8002 67.146 62.7293 67.2189 62.6408C67.3699 62.4676 67.451 62.2444 67.4464 62.0147C67.4502 61.7851 67.3692 61.5622 67.2189 61.3886C67.1443 61.2974 67.0499 61.2244 66.9428 61.1753C66.8358 61.1261 66.7189 61.102 66.6011 61.1048Z" fill="white"/>
<path d="M7.46997 59.5271V64.3919H72.5306V59.5271H7.46997ZM9.35872 63.5321H8.27765V60.4433H9.30028C9.43416 60.442 9.56798 60.4489 9.70099 60.4642C9.82384 60.4809 9.94476 60.5096 10.062 60.5497C10.3064 60.6409 10.5169 60.8048 10.6652 61.0193C10.8601 61.3007 10.9596 61.6372 10.949 61.9793C10.949 63.0145 10.4189 63.5321 9.35872 63.5321ZM13.1154 63.5321L12.4016 62.5366V63.5321H11.6377V60.4433H12.6145C12.7167 60.4433 12.8002 60.4433 12.8628 60.4433C12.946 60.4466 13.029 60.4549 13.1112 60.4683C13.2765 60.492 13.4331 60.5573 13.5661 60.6583C13.7772 60.8388 13.9133 61.0915 13.9481 61.367C13.9828 61.6426 13.9136 61.9211 13.754 62.1484C13.6873 62.2404 13.6026 62.3179 13.505 62.376C13.4074 62.4341 13.299 62.4717 13.1863 62.4865L14.0211 63.53L13.1154 63.5321ZM15.3735 63.5321H14.5888V60.4433H15.3777L15.3735 63.5321ZM17.7819 63.5321H16.9701L15.9391 60.4433H16.7468L17.3729 62.6096L17.999 60.4433H18.8129L17.7819 63.5321ZM20.1757 63.5321H19.3889V60.4433H20.1778L20.1757 63.5321ZM23.5588 63.5321H22.8742L21.6972 61.6538L21.718 63.5321H20.9542V60.4433H21.6346L22.8283 62.3842L22.7949 60.4516H23.563L23.5588 63.5321ZM27.4386 61.9689C27.4452 62.1837 27.4078 62.3975 27.3289 62.5973C27.2499 62.7972 27.131 62.9788 26.9793 63.131C26.8277 63.2832 26.6466 63.4029 26.447 63.4826C26.2475 63.5623 26.0338 63.6005 25.819 63.5947C25.6081 63.5991 25.3985 63.5609 25.2027 63.4824C25.0069 63.4039 24.8289 63.2866 24.6795 63.1376C24.5267 62.9917 24.4059 62.8156 24.3247 62.6205C24.2435 62.4255 24.2037 62.2156 24.2078 62.0044C24.2034 61.794 24.2437 61.5852 24.3261 61.3916C24.4084 61.198 24.5311 61.0241 24.6858 60.8816C24.9652 60.6234 25.3244 60.4684 25.7039 60.4422C26.0835 60.416 26.4606 60.5202 26.7728 60.7376C27.0549 60.9178 27.2619 61.1945 27.3551 61.516H26.4848C26.4228 61.3935 26.3269 61.2913 26.2085 61.2217C26.0901 61.1521 25.9542 61.1181 25.8169 61.1237C25.7039 61.1202 25.5915 61.1415 25.4876 61.1862C25.3838 61.231 25.291 61.2979 25.2159 61.3825C25.0616 61.5538 24.9794 61.7781 24.9863 62.0086C24.9787 62.2424 25.0583 62.4708 25.2096 62.6493C25.2846 62.7369 25.3782 62.8066 25.4837 62.8532C25.5892 62.8998 25.7038 62.9221 25.819 62.9185C25.9779 62.9224 26.1347 62.8819 26.2719 62.8016C26.407 62.7171 26.5048 62.5843 26.5453 62.4301H25.6354V61.804H27.4344C27.4344 61.827 27.4344 61.8541 27.4344 61.8833L27.4386 61.9689ZM32.7333 61.9689C32.7391 62.1838 32.7012 62.3976 32.6219 62.5975C32.5427 62.7973 32.4236 62.9789 32.2721 63.1314C31.962 63.4249 31.5512 63.5885 31.1242 63.5885C30.6972 63.5885 30.2864 63.4249 29.9764 63.1314C29.8239 62.9852 29.7032 62.8091 29.6221 62.6141C29.5409 62.419 29.5009 62.2093 29.5047 61.9981C29.5001 61.7876 29.5405 61.5785 29.6233 61.3848C29.7061 61.1912 29.8293 61.0174 29.9847 60.8753C30.2641 60.6171 30.6233 60.4621 31.0029 60.4359C31.3824 60.4097 31.7595 60.5139 32.0717 60.7313C32.3516 60.9168 32.5542 61.1981 32.6415 61.5223H31.7733C31.7113 61.3997 31.6154 61.2975 31.497 61.228C31.3786 61.1584 31.2427 61.1244 31.1054 61.1299C30.9924 61.1264 30.88 61.1478 30.7761 61.1925C30.6723 61.2372 30.5795 61.3042 30.5044 61.3887C30.3507 61.5603 30.2692 61.7846 30.2769 62.0148C30.2685 62.2485 30.3474 62.4768 30.4981 62.6555C30.5733 62.7435 30.6673 62.8133 30.7731 62.8599C30.879 62.9065 30.994 62.9287 31.1096 62.9248C31.2678 62.9287 31.424 62.8882 31.5604 62.8079C31.6955 62.7234 31.7933 62.5905 31.8338 62.4364H30.928V61.8103H32.7291C32.7291 61.8333 32.7291 61.8604 32.7291 61.8896L32.7333 61.9689ZM36.0183 63.1418C35.7124 63.4281 35.3092 63.5873 34.8902 63.5873C34.4713 63.5873 34.0681 63.4281 33.7622 63.1418C33.609 63.0043 33.4871 62.8355 33.4046 62.6469C33.3222 62.4582 33.2811 62.2541 33.2843 62.0482C33.2828 61.8263 33.3232 61.6061 33.4032 61.3992C33.4533 61.2771 33.52 61.1627 33.6015 61.059C33.7481 60.8578 33.9418 60.6956 34.1655 60.5865C34.3892 60.4773 34.6362 60.4246 34.885 60.4329C35.0944 60.4286 35.3026 60.4663 35.4972 60.5437C35.6919 60.6211 35.869 60.7367 36.0183 60.8837C36.1665 61.0309 36.2841 61.206 36.3644 61.3989C36.4447 61.5917 36.486 61.7986 36.486 62.0075C36.486 62.2164 36.4447 62.4233 36.3644 62.6162C36.2841 62.8091 36.1665 62.9841 36.0183 63.1314V63.1418ZM38.9151 63.5321H37.2121V60.4433H38.0009V62.8392H38.9151V63.5321ZM41.1294 61.1362H40.2007V61.6621H41.0939V62.3571H40.1965V63.5342H39.4452V60.4454H41.1294V61.1362ZM44.0763 63.5321H43.2874V60.4433H44.0763V63.5321ZM47.4593 63.5321H46.7748L45.5998 61.6538H45.5893L45.6102 63.5321H44.8505V60.4433H45.5309L46.7268 62.3842L46.6934 60.4516H47.4489L47.4593 63.5321ZM50.8486 63.5321H50.1641L48.987 61.6538L49.01 63.5321H48.2545V60.4433H48.9348L50.1286 62.3842L50.0952 60.4516H50.8507L50.8486 63.5321ZM54.2296 63.1418C53.9237 63.4281 53.5205 63.5873 53.1016 63.5873C52.6826 63.5873 52.2794 63.4281 51.9735 63.1418C51.821 63.0038 51.6997 62.8349 51.6176 62.6463C51.5356 62.4578 51.4947 62.2539 51.4977 62.0482C51.4966 61.8265 51.5362 61.6065 51.6146 61.3992C51.6679 61.2765 51.7381 61.162 51.8233 61.059C51.9699 60.8578 52.1635 60.6956 52.3872 60.5865C52.611 60.4773 52.858 60.4246 53.1068 60.4329C53.3162 60.4282 53.5245 60.4657 53.7192 60.5432C53.9139 60.6206 54.091 60.7364 54.24 60.8837C54.3888 61.0306 54.5068 61.2056 54.5874 61.3985C54.668 61.5914 54.7095 61.7984 54.7095 62.0075C54.7095 62.2166 54.668 62.4236 54.5874 62.6165C54.5068 62.8094 54.3888 62.9844 54.24 63.1314L54.2296 63.1418ZM56.8843 63.5321H56.0724L55.0414 60.4433H55.8491L56.4752 62.6096L57.1013 60.4433H57.9132L56.8843 63.5321ZM60.2506 63.5321L60.1004 63.0855H59.0276L58.8649 63.5321H58.0175L59.2572 60.4433H59.8833L61.1105 63.5321H60.2506ZM63.0264 61.1362H62.4211V63.5321H61.6322V61.1362H61.0228V60.4433H63.0264V61.1362ZM64.3516 63.5321H63.5627V60.4433H64.3516V63.5321ZM67.7305 63.1418C67.4246 63.4281 67.0214 63.5873 66.6025 63.5873C66.1836 63.5873 65.7803 63.4281 65.4744 63.1418C65.3212 63.0043 65.1993 62.8355 65.1168 62.6469C65.0344 62.4582 64.9934 62.2541 64.9965 62.0482C64.995 61.8263 65.0354 61.6061 65.1155 61.3992C65.1647 61.2767 65.2315 61.1622 65.3137 61.059C65.4604 60.8578 65.654 60.6956 65.8777 60.5865C66.1014 60.4773 66.3485 60.4246 66.5973 60.4329C66.8067 60.4286 67.0148 60.4663 67.2095 60.5437C67.4041 60.6211 67.5813 60.7367 67.7305 60.8837C67.8787 61.0309 67.9964 61.206 68.0766 61.3989C68.1569 61.5917 68.1982 61.7986 68.1982 62.0075C68.1982 62.2164 68.1569 62.4233 68.0766 62.6162C67.9964 62.8091 67.8787 62.9841 67.7305 63.1314V63.1418ZM71.508 63.5321H70.8235L69.6464 61.6538L69.6673 63.5321H68.9118V60.4433H69.5921L70.7859 62.3842L70.7525 60.4516H71.508V63.5321Z" fill="white"/>
<path d="M39.1214 54.9693V57.0731C38.5872 57.1844 38.064 57.2678 37.552 57.3235C36.9473 57.3839 36.3398 57.4118 35.7321 57.407C34.9658 57.4219 34.2005 57.3434 33.4531 57.1732C32.8874 57.0446 32.3712 56.7546 31.9671 56.3384C31.5539 55.8636 31.2744 55.2873 31.1574 54.6688C30.9719 53.7514 30.8879 52.8164 30.9069 51.8806C30.8883 50.9779 30.9723 50.0761 31.1574 49.1925C31.2754 48.5867 31.5552 48.0242 31.9671 47.5646C32.3755 47.1607 32.8913 46.8825 33.4531 46.7632C34.2014 46.5993 34.9662 46.5237 35.7321 46.5378C36.4334 46.5378 37.0386 46.5628 37.552 46.6129C38.0802 46.6654 38.6044 46.7518 39.1214 46.8717V49.0422L39.0713 49.0756C38.6257 48.9685 38.1741 48.8877 37.719 48.8335C37.1865 48.7786 36.6514 48.7535 36.1161 48.7584C35.6961 48.7504 35.2763 48.7867 34.8639 48.8669C34.5673 48.9198 34.2953 49.0661 34.0875 49.2843C33.8721 49.5533 33.7362 49.8771 33.6952 50.2193C33.6129 50.7663 33.5766 51.3192 33.5867 51.8722C33.577 52.4557 33.6132 53.0391 33.6952 53.617C33.734 53.9774 33.8696 54.3207 34.0875 54.6104C34.2896 54.8421 34.5625 55.0006 34.8639 55.0612C35.2757 55.1467 35.6957 55.1859 36.1161 55.178C36.7381 55.178 37.2696 55.1586 37.7106 55.1196C38.1582 55.0784 38.6019 55.003 39.038 54.8942L39.1214 54.9693Z" fill="white"/>
<path d="M54.916 57.2562H52.2446V46.6875H57.2869C58.61 46.6875 59.5756 46.9852 60.1836 47.5807C60.7917 48.1762 61.095 49.0528 61.0936 50.2104C61.1159 51.0033 60.8881 51.7831 60.4424 52.4393C60.0412 53.0343 59.4247 53.4503 58.7227 53.5997L58.706 53.6498C59.0558 53.8958 59.3655 54.1943 59.6243 54.5347C59.9582 54.9521 60.288 55.3945 60.6177 55.8787C60.9475 56.3629 61.2438 56.8158 61.4943 57.2395V57.2562H58.3888L56.5856 54.5848C56.473 54.4087 56.3474 54.2413 56.21 54.0839C56.1215 53.9881 56.0043 53.9236 55.876 53.9002C55.6741 53.8731 55.4703 53.8619 55.2666 53.8668H54.916V57.2562ZM56.8528 48.858H54.916V51.6963H56.8528C57.4079 51.6963 57.7961 51.5857 58.0131 51.3624C58.2302 51.1391 58.3387 50.7781 58.3387 50.2772C58.3387 49.7763 58.2302 49.4152 58.0131 49.1919C57.7961 48.9686 57.4079 48.858 56.8528 48.858Z" fill="white"/>
<path d="M65.6829 57.2562H63.0073V46.6875H67.7177C68.7738 46.6875 69.6211 46.8148 70.2534 47.0715C70.8541 47.2969 71.3445 47.7455 71.6225 48.3237C71.9008 48.9025 72.0399 49.6872 72.0399 50.6779C72.0703 51.459 71.9278 52.2372 71.6225 52.9569C71.3429 53.5434 70.8548 54.0048 70.2534 54.2509C69.6273 54.5284 68.7738 54.6683 67.7177 54.6683H65.6787L65.6829 57.2562ZM67.2878 48.8747H65.6829V52.4811H67.2878C68.0767 52.4811 68.6047 52.3475 68.8718 52.0804C69.139 51.8132 69.2712 51.3429 69.2684 50.6695C69.2684 50.0351 69.1348 49.5759 68.8677 49.2921C68.6005 49.0083 68.0739 48.8691 67.2878 48.8747Z" fill="white"/>
<path d="M50.3329 49.418C50.2032 48.7988 49.9157 48.2236 49.4981 47.7484C49.0654 47.3003 48.516 46.9823 47.912 46.8301C47.0883 46.6219 46.2402 46.5264 45.3909 46.5463C44.0426 46.5463 42.9936 46.7188 42.2436 47.0638C41.8785 47.2267 41.5498 47.4614 41.2773 47.754C41.0048 48.0466 40.794 48.3911 40.6575 48.7669C40.3514 49.5571 40.1984 50.6257 40.1984 51.9725C40.1828 52.8336 40.2668 53.6936 40.4488 54.5354C40.5797 55.1541 40.8672 55.729 41.2836 56.205C41.7159 56.6536 42.2655 56.9717 42.8697 57.1233C43.5856 57.308 44.3218 57.402 45.0611 57.4029V56.4617C45.0611 56.2029 45.0465 55.9462 45.0215 55.6874C45.0064 55.5524 44.9661 55.4214 44.9025 55.3013L44.8795 55.2596C44.7598 55.0432 44.5655 54.8778 44.3327 54.7942C43.6785 54.5496 43.1309 54.083 42.7857 53.4759C42.4404 52.8688 42.3193 52.1596 42.4435 51.4723C42.5678 50.785 42.9295 50.1632 43.4655 49.7154C44.0015 49.2676 44.6778 49.0223 45.3763 49.0223C46.0747 49.0223 46.751 49.2676 47.287 49.7154C47.823 50.1632 48.1847 50.785 48.309 51.4723C48.4332 52.1596 48.3121 52.8688 47.9668 53.4759C47.6216 54.083 47.074 54.5496 46.4198 54.7942C46.1941 54.8819 46.0074 55.0478 45.8938 55.2616L45.8709 55.3055C45.8057 55.425 45.7646 55.5562 45.7498 55.6916C45.7248 55.9504 45.7123 56.2071 45.7123 56.4659V57.4071C46.4571 57.4069 47.199 57.313 47.9203 57.1274C48.5243 56.9753 49.0737 56.6572 49.5065 56.2092C49.924 55.7339 50.2116 55.1587 50.3413 54.5395C50.5169 53.6969 50.5981 52.8373 50.5834 51.9767C50.596 51.1171 50.5119 50.2588 50.3329 49.418Z" fill="white"/>
<path d="M44.2388 53.8756C44.2807 53.8393 44.3326 53.8165 44.3877 53.8101C44.4428 53.8038 44.4986 53.8143 44.5476 53.8401C44.568 53.851 44.5855 53.8666 44.5986 53.8856C44.6117 53.9046 44.6201 53.9265 44.6229 53.9494C44.6258 53.9724 44.6231 53.9956 44.6151 54.0173C44.6071 54.0389 44.594 54.0584 44.5769 54.0739L44.2388 53.8756Z" fill="white"/>
<path d="M44.8 54.2008C44.8193 54.1506 44.8572 54.1098 44.9058 54.0869C44.9544 54.0639 45.01 54.0606 45.0609 54.0776C45.0851 54.0799 45.1085 54.0874 45.1295 54.0995C45.1506 54.1117 45.1687 54.1282 45.1828 54.148C45.1969 54.1679 45.2065 54.1905 45.211 54.2143C45.2156 54.2382 45.2149 54.2627 45.2091 54.2863L44.8 54.2008Z" fill="white"/>
<path d="M46.2131 54.08C46.1714 53.9986 46.1526 53.9151 46.2528 53.8441C46.3014 53.8156 46.3578 53.8031 46.414 53.8083C46.4702 53.8135 46.5233 53.8363 46.5658 53.8734L46.2131 54.08Z" fill="white"/>
<path d="M45.9836 54.2009L45.5662 54.2823C45.5596 54.259 45.5583 54.2345 45.5623 54.2106C45.5663 54.1868 45.5755 54.1641 45.5892 54.1442C45.603 54.1242 45.6209 54.1076 45.6418 54.0954C45.6627 54.0832 45.6861 54.0757 45.7102 54.0736C45.7634 54.0563 45.8212 54.0598 45.8719 54.0834C45.9227 54.107 45.9626 54.149 45.9836 54.2009Z" fill="white"/>
<path d="M43.9822 54.1322L43.7275 53.8567C43.7688 53.8359 43.8155 53.8285 43.8612 53.8356C43.9069 53.8428 43.9492 53.864 43.9822 53.8964C44.002 53.909 44.0183 53.9264 44.0296 53.947C44.0409 53.9676 44.0468 53.9908 44.0468 54.0143C44.0468 54.0378 44.0409 54.0609 44.0296 54.0815C44.0183 54.1021 44.002 54.1196 43.9822 54.1322Z" fill="white"/>
<path d="M43.2683 53.1867C43.3129 53.1715 43.3611 53.1709 43.4061 53.1847C43.451 53.1986 43.4905 53.2263 43.5188 53.2639C43.5338 53.2807 43.5446 53.3008 43.5502 53.3226C43.5558 53.3444 43.556 53.3673 43.5509 53.3892C43.5458 53.4111 43.5354 53.4315 43.5208 53.4486C43.5061 53.4656 43.4875 53.4789 43.4666 53.4872L43.2683 53.1867Z" fill="white"/>
<path d="M44.2661 54.3202C44.2989 54.285 44.3418 54.2608 44.3889 54.2511C44.4361 54.2414 44.485 54.2466 44.5291 54.266C44.5521 54.2698 44.5741 54.2784 44.5936 54.2913C44.6131 54.3042 44.6296 54.321 44.6422 54.3407C44.6548 54.3603 44.6631 54.3824 44.6666 54.4055C44.6702 54.4286 44.6688 54.4521 44.6626 54.4747L44.2661 54.3202Z" fill="white"/>
<path d="M47.0374 53.8591L46.7828 54.1366C46.7653 54.1262 46.7504 54.1119 46.7394 54.0948C46.7284 54.0777 46.7215 54.0582 46.7193 54.038C46.7171 54.0178 46.7196 53.9973 46.7266 53.9782C46.7336 53.9591 46.745 53.9419 46.7598 53.9279C46.7926 53.8882 46.8372 53.86 46.8872 53.8476C46.9372 53.8352 46.9899 53.8392 47.0374 53.8591Z" fill="white"/>
<path d="M46.1359 54.4765C46.1067 54.3825 46.1526 54.3178 46.2486 54.2678C46.2946 54.2464 46.346 54.2391 46.3961 54.2469C46.4463 54.2547 46.493 54.2772 46.5304 54.3116L46.1359 54.4765Z" fill="white"/>
<path d="M47.4861 53.1912L47.2878 53.4959C47.2691 53.4891 47.2521 53.4783 47.238 53.4642C47.2239 53.4502 47.2131 53.4332 47.2063 53.4144C47.1996 53.3957 47.197 53.3757 47.1988 53.3559C47.2006 53.3361 47.2068 53.3169 47.2169 53.2997C47.2429 53.2539 47.2837 53.2183 47.3326 53.1986C47.3815 53.1789 47.4355 53.1763 47.4861 53.1912Z" fill="white"/>
<path d="M45.6142 54.5851H45.1738C45.1905 54.4954 45.2657 54.4536 45.3721 54.4474C45.4223 54.4365 45.4748 54.4445 45.5195 54.4699C45.5642 54.4953 45.5979 54.5364 45.6142 54.5851Z" fill="white"/>
<path d="M47.6864 52.4814C47.7824 52.6046 47.7699 52.7068 47.6551 52.7862C47.6325 52.7664 47.615 52.7415 47.6041 52.7136C47.5931 52.6857 47.589 52.6555 47.592 52.6257C47.5951 52.5959 47.6053 52.5672 47.6217 52.5421C47.6381 52.517 47.6603 52.4962 47.6864 52.4814Z" fill="white"/>
<path d="M43.1243 52.784C43.0985 52.7699 43.0765 52.7497 43.0601 52.7252C43.0437 52.7008 43.0335 52.6727 43.0302 52.6435C43.0269 52.6142 43.0307 52.5846 43.0413 52.5571C43.0519 52.5297 43.0689 52.5051 43.0909 52.4856C43.1184 52.4982 43.1421 52.5177 43.1598 52.5422C43.1775 52.5667 43.1886 52.5954 43.1919 52.6254C43.1953 52.6554 43.1908 52.6858 43.179 52.7136C43.1671 52.7414 43.1483 52.7657 43.1243 52.784Z" fill="white"/>
<path d="M73.8326 47.2472C73.642 47.2498 73.4527 47.2151 73.2754 47.1449C73.1106 47.0797 72.9608 46.9817 72.835 46.8569C72.7096 46.7304 72.6109 46.58 72.5449 46.4145C72.4085 46.0562 72.4085 45.6603 72.5449 45.3021C72.6107 45.1371 72.7094 44.9873 72.835 44.8617C72.9606 44.7362 73.1104 44.6375 73.2754 44.5716C73.4527 44.5015 73.642 44.4668 73.8326 44.4694C74.0171 44.4676 74.2001 44.5024 74.3711 44.5716C74.7056 44.7073 74.9727 44.9699 75.114 45.3021C75.1865 45.4788 75.2227 45.6683 75.2205 45.8593C75.2228 46.0493 75.1881 46.2378 75.1182 46.4145C75.0538 46.5803 74.9557 46.7309 74.8302 46.8569C74.7036 46.9818 74.5531 47.0797 74.3878 47.1449C74.2111 47.2148 74.0225 47.2495 73.8326 47.2472ZM73.8326 47.0385C73.9879 47.0397 74.1419 47.0099 74.2855 46.9508C74.4259 46.8947 74.5537 46.811 74.6612 46.7046C74.7699 46.5965 74.8564 46.4682 74.9158 46.3268C75.034 46.0249 75.034 45.6896 74.9158 45.3877C74.8605 45.2467 74.7775 45.1182 74.6716 45.0099C74.567 44.9009 74.4413 44.8143 74.3022 44.7553C74.1532 44.6916 73.9926 44.6597 73.8305 44.6614C73.6684 44.6597 73.5075 44.6894 73.3568 44.749C73.2167 44.8044 73.09 44.8891 72.9853 44.9974C72.8786 45.1042 72.7954 45.2322 72.7411 45.3731C72.681 45.5251 72.6512 45.6875 72.6534 45.851C72.6524 46.009 72.6822 46.1656 72.7411 46.3122C72.7959 46.4535 72.879 46.582 72.9853 46.69C73.0907 46.7995 73.217 46.8868 73.3568 46.9467C73.507 47.0118 73.6689 47.0459 73.8326 47.0468V47.0385ZM73.3129 46.6795V45.035H73.7992C73.9596 45.0223 74.1194 45.0651 74.2521 45.156C74.3021 45.2025 74.3411 45.2597 74.366 45.3232C74.3909 45.3868 74.4012 45.4552 74.3961 45.5233C74.4016 45.625 74.3697 45.7252 74.3064 45.8051C74.25 45.8713 74.1784 45.9229 74.0977 45.9553L74.5359 46.69H74.2145L73.8368 46.0346H73.601V46.69L73.3129 46.6795ZM73.7909 45.7905C73.8752 45.7955 73.9581 45.7679 74.0225 45.7132C74.0491 45.689 74.0701 45.6592 74.0842 45.6261C74.0982 45.593 74.1049 45.5572 74.1039 45.5212C74.1069 45.4853 74.1017 45.4492 74.0887 45.4155C74.0757 45.3819 74.0552 45.3517 74.0288 45.3271C73.9568 45.2812 73.8718 45.2599 73.7867 45.2666H73.601V45.7905H73.7909Z" fill="white"/>
<path d="M51.3325 18.396L38.4869 40.6812L25.6434 18.396L24.0134 21.1947L36.8548 43.4715H36.8799H40.096H40.121L52.9812 21.1613L51.3325 18.396Z" fill="white"/>
<path d="M32.0778 18.3962H48.1645L49.7611 15.61L27.2275 15.6079L38.4974 35.1361H38.5225L46.5596 21.1907H36.88L38.4891 23.9831H41.7093L38.51 29.5346L32.0778 18.3962Z" fill="white"/>
<path d="M14.864 46.7046L11.5749 57.2565H7.91007L4.77954 46.7046H7.76815C7.94485 47.2611 8.13407 47.8956 8.33582 48.6079C8.53756 49.3203 8.73513 50.0466 8.92853 50.7868C9.12193 51.5284 9.29445 52.2185 9.44611 52.8571C9.59638 53.4978 9.71116 54.0279 9.78838 54.4516H9.85517C9.93239 54.0342 10.0472 53.4978 10.1974 52.8571C10.3477 52.2164 10.5209 51.5298 10.715 50.7951C10.9091 50.0605 11.1074 49.3342 11.3077 48.6246C11.5081 47.9151 11.698 47.2723 11.8754 46.7046H14.864Z" fill="white"/>
<path d="M23.162 54.134C23.1603 53.7994 23.1771 53.465 23.2121 53.1322L23.1787 53.0822C22.8678 53.126 22.5276 53.1573 22.1603 53.174C21.7929 53.1907 21.4528 53.1928 21.1418 53.174V51.0035L25.4995 50.9868V56.6635C24.9412 56.9122 24.3556 57.0943 23.7547 57.2061C22.9361 57.3475 22.106 57.4118 21.2754 57.3981C19.9397 57.3981 18.8962 57.2172 18.1448 56.8555C17.7755 56.683 17.4438 56.4394 17.1688 56.1386C16.8938 55.8378 16.6808 55.4857 16.542 55.1024C16.2304 54.294 16.0745 53.2171 16.0745 51.8717C16.0479 50.9609 16.1749 50.0522 16.4502 49.1836C16.6559 48.5476 17.0381 47.983 17.5521 47.5557C18.0746 47.1542 18.6834 46.8798 19.3303 46.7543C20.1192 46.5987 20.9221 46.526 21.7262 46.5373C22.2604 46.5373 22.7975 46.5595 23.3373 46.6041C23.8798 46.6482 24.4183 46.7319 24.9485 46.8545V49.0584L24.8984 49.0918C24.4396 48.982 23.9738 48.9039 23.5043 48.858C23.0438 48.8135 22.5763 48.7913 22.1018 48.7913C21.5025 48.7813 20.9045 48.8515 20.3237 49C19.8357 49.1253 19.4144 49.4331 19.1466 49.8598C18.8683 50.2939 18.7292 50.9673 18.7292 51.88C18.7099 52.5754 18.7914 53.27 18.9713 53.942C19.0279 54.1561 19.1325 54.3546 19.2771 54.5224C19.4218 54.6901 19.6026 54.8228 19.8061 54.9104C20.3829 55.1083 20.9917 55.1961 21.6009 55.1692C21.7011 55.1692 21.8576 55.1692 22.0684 55.1692C22.2792 55.1692 22.4858 55.1546 22.6945 55.1441C22.846 55.1408 22.9968 55.1241 23.1453 55.094L23.162 54.134Z" fill="white"/>
</svg>
