<svg width="75" height="76" viewBox="0 0 75 76" fill="none" xmlns="http://www.w3.org/2000/svg">
<rect y="0.03125" width="75" height="75" rx="37.5" fill="#0074BB"/>
<path d="M61.4937 60.9535C61.2601 61.3821 60.9002 61.5249 60.4112 61.5249C55.8041 61.5112 51.1969 61.5167 46.5924 61.5167C45.7518 61.5167 45.4935 61.2639 45.4935 60.4316C45.4935 58.0747 45.499 55.715 45.4825 53.3581C45.4825 53.1081 45.4139 52.8252 45.282 52.6191C43.2051 49.3639 42.716 45.9137 43.9468 42.2355C43.9661 42.1805 43.9633 42.1201 43.9798 41.9828C43.0485 42.3399 42.1693 42.675 41.2902 43.0129C36.0237 45.0402 30.7599 47.0729 25.4906 49.092C23.106 50.0067 20.9467 49.0453 20.0236 46.6719C19.1032 44.304 18.1884 41.9333 17.2845 39.5599C17.1637 39.2413 17.0208 39.0709 16.6527 38.9995C14.8752 38.6507 13.5263 37.0464 13.5208 35.2306C13.5015 29.2971 13.5015 23.3636 13.5208 17.4328C13.5263 15.6445 14.7818 14.1227 16.5428 13.6557C16.6582 13.6228 16.7708 13.5761 16.8834 13.5376C27.9412 13.5376 38.999 13.5376 50.0595 13.5376C50.1309 13.5651 50.1996 13.6035 50.2738 13.62C52.0705 14.0183 53.3233 15.3424 53.4551 17.1829C53.5568 18.625 53.5046 20.0809 53.4963 21.5314C53.4963 21.8665 53.5843 22.1082 53.8288 22.35C55.337 23.8388 56.8288 25.3469 58.3288 26.8441C59.5761 28.0884 60.4991 29.5361 61.0074 31.2228C61.2217 31.9342 61.3343 32.6732 61.4937 33.4011V60.9535ZM41.4605 37.5271C41.293 37.3321 41.1941 37.214 41.0924 37.1013C40.1968 36.1207 39.2957 35.1482 38.4083 34.1621C37.1061 32.7116 36.9083 30.6624 37.9028 29.0417C39.3671 26.6545 42.5924 26.3084 44.6364 28.3357C46.9111 30.5882 49.1666 32.86 51.4249 35.129C51.5403 35.2471 51.587 35.4339 51.6639 35.5905C51.7326 35.5383 51.7985 35.4861 51.8672 35.4339C51.8809 35.2032 51.9029 34.9752 51.9029 34.7444C51.9029 29.1241 51.9029 23.501 51.9029 17.8806C51.9029 16.0841 50.9524 15.1364 49.1584 15.1364C38.727 15.1364 28.2929 15.1364 17.8615 15.1364C16.0593 15.1364 15.1087 16.0786 15.1087 17.8669C15.1087 23.5037 15.1087 29.1405 15.1087 34.7774C15.1087 36.5822 16.0483 37.5271 17.8422 37.5271C25.5264 37.5271 33.2105 37.5271 40.8919 37.5271H41.4605ZM56.0293 42.0981C55.9387 41.9718 55.8535 41.8152 55.7326 41.6943C51.7161 37.6727 47.6941 33.6539 43.6721 29.6378C43.5073 29.4729 43.3424 29.3026 43.1584 29.1598C42.4303 28.5911 41.6116 28.4318 40.7298 28.6983C38.8039 29.2806 38.216 31.5909 39.6034 33.1127C41.6968 35.4092 43.8012 37.6947 45.9029 39.9857C46.3754 40.5021 46.4001 40.7082 46.0897 41.3207C44.315 44.8122 44.4825 48.2239 46.51 51.5615C46.6776 51.8362 46.8644 51.9324 47.1831 51.9324C51.2601 51.9214 55.3343 51.9241 59.4112 51.9241C59.5623 51.9241 59.7134 51.9104 59.8728 51.9049C59.881 51.7511 59.892 51.644 59.892 51.5341C59.892 45.7709 59.9002 40.0104 59.881 34.2472C59.881 33.6127 59.7739 32.9726 59.6502 32.3463C59.0706 29.3768 56.8096 27.616 54.815 25.6574C54.826 25.7865 54.8672 25.8963 54.9112 26.009C55.7244 28.1187 56.5403 30.2256 57.3453 32.3381C58.2217 34.6318 57.2629 36.8074 54.9826 37.7277C54.7738 37.8128 54.5705 37.9062 54.2738 38.0353C55.2986 39.038 56.2656 39.9829 57.1969 40.8949C56.8123 41.2878 56.4552 41.6504 56.0238 42.0926L56.0293 42.0981ZM20.2928 42.7931C20.2928 42.8591 20.2846 42.892 20.2928 42.9167C20.7049 43.9936 21.1142 45.0704 21.5346 46.1445C22.1115 47.6223 23.3835 48.1937 24.8615 47.6251C31.1006 45.2242 37.3369 42.8178 43.5732 40.4142C43.6968 40.3675 43.8122 40.3016 43.9688 40.2274C43.7545 39.9939 43.5512 39.8154 43.4001 39.6011C43.1226 39.2001 42.7627 39.1039 42.2847 39.1067C38.3039 39.1259 34.3231 39.1149 30.3423 39.1259C30.0099 39.1259 29.661 39.1918 29.3478 39.3099C27.8588 39.8621 26.3753 40.4389 24.8945 41.0103C23.356 41.6037 21.8175 42.2025 20.2928 42.7931ZM59.8728 59.8932V53.5614H47.1337V59.8932H59.8728ZM53.2024 36.7085C53.6584 36.5327 54.0458 36.3844 54.4304 36.2305C55.848 35.6647 56.4167 34.3956 55.8755 32.9644C55.1694 31.0992 54.4442 29.2422 53.7244 27.3825C53.6859 27.2836 53.6282 27.1957 53.5788 27.1023C53.5073 28.7999 53.5321 30.4701 53.4991 32.1375C53.4689 33.6401 53.7024 35.1592 53.2024 36.7085ZM19.6692 41.3152C21.5236 40.601 23.323 39.906 25.1253 39.2138C25.117 39.1891 25.106 39.1643 25.0978 39.1396H18.8367C19.1142 39.8648 19.378 40.5571 19.6664 41.3152H19.6692Z" fill="#0973BA"/>
<path d="M41.4605 37.5271H40.8919C33.2077 37.5271 25.5236 37.5271 17.8422 37.5271C16.0483 37.5271 15.1087 36.5822 15.1087 34.7774C15.1087 29.1405 15.1087 23.5037 15.1087 17.8669C15.1087 16.0786 16.0593 15.1364 17.8615 15.1364C28.2929 15.1364 38.727 15.1364 49.1584 15.1364C50.9524 15.1364 51.9029 16.0841 51.9029 17.8806C51.9029 23.501 51.9029 29.1241 51.9029 34.7444C51.9029 34.9752 51.8782 35.2032 51.8672 35.4339C51.7985 35.4861 51.7326 35.5383 51.6639 35.5905C51.5842 35.4367 51.5403 35.2471 51.4249 35.129C49.1694 32.8572 46.9111 30.5882 44.6364 28.3357C42.5924 26.3084 39.3671 26.6573 37.9028 29.0417C36.9083 30.6624 37.1061 32.7116 38.4083 34.1621C39.2957 35.1482 40.1995 36.1234 41.0924 37.1013C41.1941 37.214 41.293 37.3321 41.4605 37.5271ZM24.7022 20.7595C24.7022 20.1359 24.7132 19.5123 24.7022 18.8887C24.672 17.5812 23.8148 16.7433 22.5016 16.7351C21.3148 16.7296 20.1307 16.7296 18.9439 16.7351C17.5867 16.7406 16.7158 17.6059 16.7076 18.9547C16.7021 20.1414 16.7021 21.3253 16.7076 22.512C16.7131 23.8498 17.5565 24.7096 18.8944 24.7289C20.1115 24.7453 21.3285 24.7453 22.5456 24.7289C23.845 24.7096 24.672 23.8828 24.7022 22.5862C24.7159 21.9791 24.7022 21.3693 24.7022 20.7622V20.7595ZM20.7021 27.16H17.5538V28.6873H20.7021V27.16ZM22.3395 27.1517V28.6983H25.4714V27.1517H22.3395ZM27.1143 28.6983H30.2627V27.1682H27.1143V28.6983ZM31.9275 27.1572V28.6955H35.0539V27.1572H31.9275ZM17.54 33.4808H20.6857V31.9507H17.54V33.4808ZM35.0704 31.9507H31.933V33.489H35.0704V31.9507ZM39.0704 17.5757H37.5237V19.8969H39.0704V17.5757ZM42.26 19.9051V17.5812H40.7215V19.9051H42.26ZM45.4551 19.9051V17.5839H43.9166V19.9051H45.4551ZM47.1144 19.8942H48.6611V17.5784H47.1144V19.8942Z" fill="white"/>
<path d="M56.0293 42.0981C56.4606 41.6586 56.8178 41.2933 57.2024 40.9004C56.2711 39.9884 55.3041 39.0435 54.2793 38.0408C54.5733 37.9117 54.7793 37.8156 54.9881 37.7332C57.2683 36.8129 58.2271 34.6373 57.3508 32.3435C56.5458 30.2311 55.7271 28.1242 54.9167 26.0145C54.8727 25.9018 54.8343 25.792 54.8205 25.6628C56.8151 27.6187 59.0761 29.3823 59.6557 32.3518C59.7794 32.9781 59.8838 33.6182 59.8865 34.2527C59.9057 40.0159 59.8975 45.7764 59.8975 51.5396C59.8975 51.6467 59.8865 51.7566 59.8783 51.9104C59.7189 51.9187 59.5678 51.9296 59.4167 51.9296C55.3398 51.9296 51.2656 51.9269 47.1886 51.9379C46.8672 51.9379 46.6804 51.8417 46.5155 51.567C44.488 48.2267 44.3205 44.8177 46.0952 41.3262C46.4056 40.7136 46.3809 40.5076 45.9084 39.9912C43.8095 37.7002 41.705 35.4147 39.6089 33.1182C38.2188 31.5964 38.8094 29.2861 40.7353 28.7038C41.6144 28.4373 42.4358 28.5966 43.1638 29.1653C43.3479 29.3081 43.5128 29.4784 43.6776 29.6432C47.6996 33.6621 51.7189 37.6782 55.7381 41.6998C55.859 41.8207 55.9414 41.9773 56.0348 42.1036L56.0293 42.0981Z" fill="white"/>
<path d="M20.2901 42.7931C21.8148 42.2025 23.3533 41.6037 24.8917 41.0103C26.3753 40.4389 27.856 39.8621 29.3451 39.3099C29.6583 39.1946 30.0072 39.1286 30.3396 39.1259C34.3204 39.1149 38.3012 39.1259 42.282 39.1067C42.7627 39.1067 43.1199 39.2028 43.3974 39.6011C43.5457 39.8154 43.749 39.9939 43.9661 40.2274C43.8122 40.3016 43.6941 40.3648 43.5704 40.4142C37.3341 42.8206 31.0978 45.2242 24.8588 47.6251C23.3807 48.1937 22.1087 47.6223 21.5318 46.1445C21.1115 45.0704 20.7021 43.9936 20.2901 42.9167C20.2791 42.8893 20.2901 42.8563 20.2901 42.7931Z" fill="white"/>
<path d="M59.87 59.8932H47.1309V53.5614H59.87V59.8932ZM48.7243 56.6874H50.271V55.1629H48.7243V56.6874Z" fill="white"/>
<path d="M53.1996 36.7085C53.6969 35.1592 53.4661 33.6401 53.4963 32.1375C53.5293 30.4701 53.5046 28.7999 53.576 27.1023C53.6255 27.1957 53.6832 27.2863 53.7216 27.3825C54.4414 29.2422 55.1639 31.0992 55.8727 32.9644C56.4167 34.3956 55.848 35.6647 54.4277 36.2305C54.043 36.3844 53.6557 36.53 53.1996 36.7085Z" fill="white"/>
<path d="M19.6692 41.3152C19.3807 40.5598 19.117 39.8676 18.8395 39.1396H25.0978C25.106 39.1643 25.117 39.1891 25.1253 39.2138C23.3258 39.906 21.5263 40.601 19.6692 41.3152Z" fill="white"/>
<path d="M24.7022 20.7595C24.7022 21.3665 24.7132 21.9764 24.7022 22.5835C24.672 23.8773 23.845 24.7069 22.5456 24.7261C21.3285 24.7426 20.1115 24.7426 18.8944 24.7261C17.5565 24.7096 16.7158 23.8471 16.7076 22.5093C16.7021 21.3226 16.7021 20.1386 16.7076 18.9519C16.7158 17.6032 17.5867 16.7378 18.9439 16.7324C20.1307 16.7269 21.3148 16.7269 22.5016 16.7324C23.8148 16.7406 24.672 17.5784 24.7022 18.886C24.7159 19.5096 24.7022 20.1331 24.7022 20.7567V20.7595ZM23.0978 19.9299C23.0978 19.5288 23.1033 19.1882 23.0978 18.8503C23.0895 18.5042 22.889 18.3366 22.5593 18.3339C21.3258 18.3284 20.0922 18.3146 18.8587 18.3503C18.6747 18.3558 18.3779 18.5866 18.3422 18.7596C18.2626 19.125 18.3175 19.5206 18.3175 19.9463H19.8642V21.5478H18.3093C18.3093 21.9489 18.2543 22.317 18.3312 22.6549C18.3725 22.8389 18.6334 23.0999 18.8038 23.1054C20.0675 23.1438 21.334 23.1411 22.5978 23.1081C22.7653 23.1026 23.0373 22.8774 23.0675 22.7181C23.139 22.3472 23.0895 21.9571 23.0895 21.5231H21.5428V19.9326H23.1005L23.0978 19.9299Z" fill="white"/>
<path d="M20.7021 27.1572V28.6845H17.5538V27.1572H20.7021Z" fill="white"/>
<path d="M22.3395 27.149H25.4714V28.6955H22.3395V27.149Z" fill="white"/>
<path d="M27.1143 28.6955V27.1655H30.2627V28.6955H27.1143Z" fill="white"/>
<path d="M31.9275 27.1545H35.0539V28.6928H31.9275V27.1545Z" fill="white"/>
<path d="M17.54 33.4808V31.9507H20.6857V33.4808H17.54Z" fill="white"/>
<path d="M35.0731 31.9507V33.489H31.9357V31.9507H35.0731Z" fill="white"/>
<path d="M39.0732 17.5757V19.8969H37.5264V17.5757H39.0732Z" fill="white"/>
<path d="M42.2627 19.9051H40.7243V17.5812H42.2627V19.9051Z" fill="white"/>
<path d="M45.4606 19.9051H43.9221V17.5839H45.4606V19.9051Z" fill="white"/>
<path d="M47.1199 19.8942V17.5784H48.6666V19.8942H47.1199Z" fill="white"/>
<path d="M48.7243 56.6874V55.1629H50.271V56.6874H48.7243Z" fill="white"/>
<path d="M23.0978 19.9271H21.5401V21.5176H23.0868C23.0868 21.9489 23.1362 22.3417 23.0648 22.7126C23.0346 22.8719 22.7626 23.0999 22.595 23.1026C21.3313 23.1356 20.0648 23.1384 18.801 23.0999C18.6307 23.0944 18.3697 22.8334 18.3285 22.6494C18.2516 22.3115 18.3065 21.9434 18.3065 21.5423H19.8615V19.9408H18.3148C18.3148 19.5151 18.2598 19.1195 18.3395 18.7541C18.3779 18.5811 18.6719 18.3503 18.856 18.3448C20.0895 18.3091 21.323 18.3229 22.5566 18.3284C22.8862 18.3284 23.0868 18.4987 23.095 18.8448C23.1033 19.1854 23.095 19.5261 23.095 19.9244L23.0978 19.9271Z" fill="white"/>
</svg>
