<svg width="75" height="76" viewBox="0 0 75 76" fill="none" xmlns="http://www.w3.org/2000/svg">
<rect y="0.03125" width="75" height="75" rx="37.5" fill="#0074BB"/>
<path d="M15.781 21.9525C15.781 21.593 19.1037 15.5921 19.1037 15.5921L20.7007 14.8732L37.8533 21.7129L15.781 21.9525Z" fill="white"/>
<path d="M35.0615 52.6763L53.9438 59.8753L55.9391 59.2763L59.3985 51.9539L35.0615 52.6763Z" fill="white"/>
<path d="M27.2212 34.5535H11.3962V52.5529H27.2212V34.5535Z" fill="white"/>
<path d="M6.78101 40.6708C7.90161 38.1477 9.02611 35.6282 10.135 33.1017C10.2404 32.8586 10.2873 32.5767 10.2873 32.3159C10.299 29.9867 10.2912 27.661 10.2951 25.3318C10.2951 22.9004 11.892 21.438 14.5823 21.4732C15.2187 21.4803 15.4803 21.2935 15.6911 20.7755C16.2417 19.4435 16.8547 18.1292 17.456 16.8148C18.3697 14.8203 20.4703 14.0028 22.7115 14.7781C23.8282 15.1657 24.9371 15.578 26.0421 15.9902C26.7019 16.2369 26.9557 16.6492 26.7566 17.1073C26.5418 17.6006 26.0421 17.7416 25.3471 17.4914C24.2733 17.1038 23.2035 16.702 22.1258 16.3144C20.7553 15.8211 19.6699 16.2299 19.1154 17.4526C18.5258 18.7494 17.9441 20.0532 17.335 21.4098H35.9518C35.7175 21.3041 35.5769 21.2336 35.4325 21.1772C33.3435 20.4126 31.2507 19.6479 29.1579 18.8903C28.7206 18.7317 28.3731 18.5203 28.377 18.0411C28.377 17.4138 29.0173 17.0897 29.7709 17.361C31.8481 18.108 33.9175 18.8692 35.9908 19.6268C36.8225 19.9298 37.6854 20.18 38.4858 20.5465C40.1726 21.3252 41.9413 21.4944 43.8116 21.4768C49.3287 21.4169 54.8497 21.4556 60.3707 21.4556C63.139 21.4556 64.7047 22.8792 64.7086 25.3917C64.7086 26.78 64.7282 28.1719 64.6969 29.5603C64.6852 29.9867 64.818 30.2052 65.2787 30.3426C66.8132 30.8042 67.8362 31.7063 68.1563 33.1827C68.3203 33.9404 68.1446 34.6486 67.8284 35.3463C66.8522 37.517 65.8683 39.6841 64.9078 41.8583C64.7867 42.1331 64.7204 42.4503 64.7164 42.7463C64.7008 45.0755 64.7086 47.4012 64.7086 49.7304C64.7086 52.1583 63.1078 53.6136 60.4176 53.5889C59.8319 53.5819 59.539 53.7193 59.3282 54.2373C58.7777 55.5904 58.1529 56.9189 57.5438 58.2509C56.6341 60.2418 54.5022 61.0664 52.2844 60.2771C50.3712 59.597 48.4697 58.8922 46.5643 58.1945C45.9044 57.9514 45.6428 57.5391 45.838 57.081C46.0489 56.5841 46.5487 56.4361 47.2437 56.6898C49.0944 57.3629 50.9452 58.043 52.7959 58.716C54.2679 59.2516 55.3221 58.8499 55.9234 57.525C56.4974 56.2564 57.0636 54.9879 57.6571 53.6594H39.0832C39.2862 53.751 39.4229 53.8285 39.5713 53.8814C40.9027 54.3712 42.2381 54.8469 43.5656 55.3473C44.2255 55.5975 44.4285 56.1648 44.042 56.6123C43.6788 57.0316 43.2259 56.9788 42.7417 56.8026C40.4693 55.9675 38.1734 55.1746 35.9244 54.2902C34.6711 53.7968 33.4177 53.5713 32.0472 53.5924C28.7674 53.6453 25.4876 53.6101 22.2078 53.6101C22.0282 53.6101 21.8486 53.6171 21.669 53.603C21.1224 53.5607 20.7944 53.2683 20.7827 52.8207C20.7709 52.3556 21.1067 52.0103 21.6846 51.9962C22.8247 51.9715 23.9648 51.9856 25.105 51.9856C25.3822 51.9856 25.6555 51.9856 25.9718 51.9856V36.2484C24.4568 37.1963 23.1839 38.2711 22.0985 39.5255C21.0443 40.7448 20.2321 42.0767 19.7284 43.5638C19.5215 44.1804 19.0686 44.4342 18.5415 44.2826C17.9909 44.1241 17.7957 43.7047 18.0026 43.0881C18.7054 40.9985 19.9393 39.1837 21.5518 37.5663C22.243 36.8757 22.9028 36.1603 23.4612 35.5824H12.0951V36.1462C12.0951 40.6778 12.0951 45.2059 12.0951 49.7374C12.0951 51.2703 12.8877 51.975 14.6018 51.9821C15.6833 51.9821 16.761 51.975 17.8425 51.9856C18.561 51.9926 18.9436 52.2887 18.9397 52.8031C18.9358 53.3176 18.5571 53.5995 17.8308 53.603C16.6517 53.6101 15.4725 53.6206 14.2933 53.603C11.9428 53.5643 10.3263 52.0878 10.3029 49.9559C10.2834 48.4231 10.2951 46.8867 10.3029 45.3539C10.3029 45.072 10.256 44.8781 9.91244 44.7865C8.26082 44.339 7.21831 43.3594 6.78101 41.8618C6.78101 41.4636 6.78101 41.0654 6.78101 40.6708ZM27.8421 51.9786H28.5058C39.1222 51.9786 49.7426 51.9786 60.359 51.9786C62.116 51.9786 62.9008 51.2773 62.9008 49.7128C62.9008 45.2023 62.9008 40.6884 62.9008 36.1779C62.9008 35.9841 62.9008 35.7903 62.9008 35.6036H29.9817C30.2394 35.8044 30.4073 35.9313 30.5752 36.0617C33.0195 37.9856 34.8858 40.262 35.8346 43.0951C36.0377 43.6977 35.8424 44.1276 35.3036 44.2826C34.7726 44.4377 34.3431 44.191 34.1244 43.5673C33.0741 40.5968 30.9774 38.338 28.2637 36.4916C28.1466 36.4105 28.0099 36.3541 27.8381 36.266V51.9786H27.8421ZM34.9717 33.9016C35.1162 33.9086 35.2294 33.9192 35.3427 33.9192C44.3426 33.9192 53.3386 33.9192 62.3386 33.9263C62.7837 33.9263 62.9165 33.8135 62.9165 33.4083C62.8969 30.702 62.9086 27.9957 62.9047 25.286C62.9047 23.813 62.1043 23.0801 60.48 23.0801C49.8011 23.0801 39.1222 23.0801 28.4473 23.0695C27.9592 23.0695 27.7991 23.1787 27.803 23.6404C27.8264 26.1493 27.8147 28.6582 27.8147 31.1671C27.8147 31.2975 27.8421 31.4279 27.8577 31.5583C28.6815 30.6773 29.4 29.7541 30.2941 29C31.0672 28.3481 31.9691 27.7526 32.9336 27.3685C34.4915 26.7448 36.0767 27.3368 37.1192 28.7287C38.0602 29.9832 37.9704 31.3469 36.7951 32.4886C36.2719 32.996 35.6277 33.4012 34.9756 33.9051L34.9717 33.9016ZM18.9866 33.9192C18.4321 33.5457 17.9714 33.2744 17.5575 32.9537C16.8274 32.3899 16.2651 31.7204 16.1324 30.8289C15.7731 28.4292 18.643 26.4664 21.138 27.4073C22.446 27.9006 23.4338 28.771 24.3319 29.7259C24.8824 30.3073 25.3861 30.9275 25.9718 31.5935V23.14C25.8937 23.1153 25.8546 23.0942 25.8195 23.0942C21.9228 23.0942 18.0261 23.073 14.1293 23.1012C12.9697 23.1083 12.1341 23.88 12.1224 24.9477C12.0873 27.816 12.1146 30.6844 12.099 33.5527C12.099 33.9474 12.3528 33.9263 12.6456 33.9263C14.4456 33.9263 16.2417 33.9263 18.0417 33.9263C18.315 33.9263 18.5844 33.9263 18.9944 33.9263L18.9866 33.9192ZM25.3392 33.8417C24.3826 32.4251 23.4534 31.146 22.2234 30.0783C21.7666 29.6836 21.259 29.3136 20.7163 29.0282C19.7519 28.5173 18.928 28.7357 18.2408 29.6061C17.6981 30.2897 17.8035 30.9381 18.5922 31.6111C18.8655 31.8437 19.1701 32.0551 19.4942 32.2313C21.2512 33.1933 23.1957 33.6091 25.3431 33.8417H25.3392ZM28.498 33.8417C30.4151 33.6444 32.1409 33.2955 33.7301 32.5379C34.3236 32.256 34.8858 31.8895 35.3739 31.4772C36.0767 30.8817 36.1158 30.2827 35.6277 29.6413C35.0108 28.8274 34.2572 28.5736 33.3787 28.9154C33.0702 29.0353 32.7696 29.1938 32.5041 29.3771C30.8173 30.5575 29.6694 32.1327 28.498 33.8417ZM64.7516 31.9529V37.6262C65.3568 36.5021 65.9151 35.371 66.3407 34.1976C66.696 33.2215 65.962 32.2525 64.7516 31.9529ZM10.2638 37.4359C10.2248 37.4289 10.1858 37.4218 10.1467 37.4148C9.65474 38.5318 9.11982 39.6348 8.69032 40.7694C8.29206 41.8125 9.0183 42.8344 10.2678 43.0986V37.4359H10.2638Z" fill="#0973BA"/>
<path d="M27.8421 51.9786V36.266C28.0099 36.3541 28.1466 36.4105 28.2676 36.4916C30.9813 38.3345 33.078 40.5968 34.1283 43.5673C34.347 44.191 34.7804 44.4377 35.3075 44.2826C35.8463 44.1241 36.0416 43.6977 35.8385 43.0951C34.8858 40.262 33.0234 37.9856 30.5791 36.0617C30.4151 35.9313 30.2472 35.8044 29.9856 35.6036H62.9047C62.9047 35.7939 62.9047 35.9877 62.9047 36.1779C62.9047 40.6884 62.9047 45.2023 62.9047 49.7128C62.9047 51.2773 62.1199 51.9786 60.3629 51.9786C49.7465 51.9786 39.1261 51.9786 28.5097 51.9786H27.8421ZM54.6662 47.9826C54.7833 47.9368 54.8731 47.9015 54.9629 47.8734C56.4115 47.3695 57.1729 46.3194 57.0519 44.9909C56.9386 43.7858 55.9313 42.8872 54.4085 42.6229C54.018 42.556 53.5768 42.5525 53.2566 42.3727C52.9833 42.2212 52.671 41.8407 52.7022 41.5975C52.7412 41.2839 53.038 40.8998 53.3465 40.7307C53.8267 40.4664 54.471 40.6954 54.8302 41.1183C55.2831 41.6539 55.7282 41.7702 56.189 41.4742C56.6536 41.1747 56.7356 40.6109 56.2631 40.1422C55.8297 39.7158 55.2792 39.3846 54.674 38.9335C54.674 38.8349 54.6857 38.5847 54.674 38.3345C54.6428 37.8553 54.2992 37.5416 53.815 37.5276C53.3308 37.5135 52.9521 37.813 52.8896 38.2781C52.8662 38.4543 52.917 38.6481 52.8662 38.8173C52.8232 38.9617 52.7217 39.145 52.589 39.2119C51.3473 39.8251 50.6875 40.8857 50.8905 41.9922C51.1092 43.1797 52.0462 43.9373 53.53 44.1452C53.9009 44.1981 54.3265 44.2227 54.6154 44.4024C54.9044 44.5822 55.2284 44.9451 55.2206 45.2235C55.2128 45.5618 54.9629 46.0058 54.6584 46.1996C53.9673 46.6365 52.5421 46.3299 52.2415 45.5688C52.0306 45.0367 51.5269 44.8746 51.0467 45.0649C50.5547 45.2587 50.3751 45.7379 50.6211 46.2559C50.9725 46.9854 51.5621 47.5245 52.3976 47.7712C52.8154 47.8945 52.9287 48.0777 52.8818 48.4301C52.8662 48.5534 52.8701 48.6874 52.8974 48.8072C53.0029 49.2512 53.3152 49.5225 53.8189 49.5013C54.3148 49.4802 54.631 49.2159 54.6701 48.7473C54.6896 48.4971 54.6701 48.2434 54.6701 47.9861L54.6662 47.9826Z" fill="white"/>
<path d="M34.9678 33.9016C35.6199 33.3977 36.2641 32.9925 36.7873 32.485C37.9665 31.3469 38.0524 29.9832 37.1114 28.7252C36.0689 27.3333 34.4837 26.7413 32.9258 27.365C31.9652 27.7491 31.0594 28.3446 30.2863 28.9965C29.3921 29.7541 28.6698 30.6773 27.8499 31.5548C27.8342 31.4244 27.8069 31.294 27.8069 31.1636C27.8069 28.6547 27.8186 26.1458 27.7952 23.6368C27.7913 23.1787 27.9514 23.066 28.4394 23.066C39.1183 23.0766 49.7972 23.073 60.4722 23.0766C62.0965 23.0766 62.893 23.8095 62.8969 25.2824C62.8969 27.9887 62.8891 30.695 62.9086 33.4047C62.9086 33.81 62.7798 33.9227 62.3308 33.9227C53.3308 33.9122 44.3348 33.9157 35.3348 33.9157C35.2216 33.9157 35.1084 33.9051 34.9639 33.8981L34.9678 33.9016Z" fill="white"/>
<path d="M18.9866 33.9192C18.5805 33.9192 18.3072 33.9192 18.0339 33.9192C16.2339 33.9192 14.4378 33.9192 12.6378 33.9192C12.345 33.9192 12.0873 33.9439 12.0912 33.5457C12.1029 30.6773 12.0795 27.809 12.1146 24.9406C12.1263 23.8764 12.9658 23.1012 14.1215 23.0942C18.0182 23.0695 21.915 23.0871 25.8117 23.0871C25.8468 23.0871 25.8859 23.1083 25.964 23.1329V31.5865C25.3822 30.917 24.8746 30.3003 24.3241 29.7189C23.426 28.7639 22.4382 27.8936 21.1302 27.4002C18.6352 26.4594 15.7692 28.4256 16.1245 30.8218C16.2573 31.7133 16.8196 32.3828 17.5497 32.9466C17.9636 33.2673 18.4243 33.5386 18.9788 33.9122L18.9866 33.9192Z" fill="white"/>
<path d="M25.3353 33.8417C23.1878 33.6091 21.2434 33.1933 19.4864 32.2313C19.1662 32.0551 18.8577 31.8437 18.5844 31.6111C17.7957 30.9346 17.6942 30.2862 18.233 29.6061C18.9202 28.7393 19.7441 28.5173 20.7085 29.0282C21.2512 29.3172 21.7627 29.6836 22.2156 30.0783C23.4455 31.146 24.3748 32.4251 25.3314 33.8417H25.3353Z" fill="white"/>
<path d="M28.498 33.8417C29.6694 32.1362 30.8134 30.5575 32.5041 29.3771C32.7696 29.1903 33.0702 29.0353 33.3787 28.9154C34.2572 28.5736 35.0108 28.8274 35.6277 29.6413C36.1158 30.2827 36.0767 30.8782 35.3739 31.4772C34.8858 31.8895 34.3197 32.256 33.7301 32.5379C32.1409 33.2955 30.4112 33.6444 28.498 33.8417Z" fill="white"/>
<path d="M64.7477 31.9529C65.9581 32.2525 66.6921 33.2215 66.3368 34.1976C65.9112 35.3675 65.3568 36.4986 64.7477 37.6262V31.9529Z" fill="white"/>
<path d="M10.2638 37.4359V43.0986C9.0144 42.8344 8.29206 41.8125 8.68642 40.7694C9.11982 39.6348 9.65474 38.5318 10.1428 37.4148C10.1819 37.4218 10.2209 37.4289 10.2599 37.4359H10.2638Z" fill="white"/>
<path d="M54.6662 47.9826C54.6662 48.2434 54.6818 48.4935 54.6662 48.7437C54.6271 49.2124 54.3148 49.4767 53.815 49.4978C53.3113 49.519 52.9989 49.2476 52.8935 48.8036C52.8662 48.6838 52.8623 48.5499 52.8779 48.4266C52.9248 48.0742 52.8115 47.891 52.3937 47.7676C51.5582 47.521 50.9686 46.9818 50.6172 46.2524C50.3673 45.7344 50.5508 45.2587 51.0428 45.0614C51.5269 44.8711 52.0267 45.0297 52.2376 45.5653C52.5382 46.3264 53.9634 46.6365 54.6545 46.196C54.959 46.0022 55.205 45.5547 55.2167 45.22C55.2245 44.9451 54.9005 44.5786 54.6115 44.3989C54.3226 44.2192 53.897 44.1945 53.5261 44.1417C52.0462 43.9373 51.1052 43.1797 50.8866 41.9887C50.6836 40.8822 51.3434 39.8215 52.5851 39.2084C52.7217 39.1414 52.8193 38.9582 52.8623 38.8137C52.913 38.6446 52.8623 38.4543 52.8857 38.2746C52.9482 37.8095 53.3308 37.5099 53.8111 37.524C54.2952 37.5381 54.6389 37.8553 54.6701 38.331C54.6857 38.5812 54.6701 38.8349 54.6701 38.93C55.2753 39.3811 55.8297 39.7088 56.2592 40.1387C56.7317 40.6073 56.6497 41.1711 56.185 41.4707C55.7243 41.7667 55.2831 41.6504 54.8263 41.1148C54.4671 40.6919 53.8267 40.4629 53.3425 40.7271C53.0341 40.8963 52.7373 41.2804 52.6983 41.594C52.6671 41.8407 52.9794 42.2177 53.2527 42.3692C53.5729 42.5489 54.0141 42.5525 54.4046 42.6194C55.9273 42.8837 56.9347 43.7823 57.048 44.9874C57.1729 46.3159 56.4115 47.3659 54.959 47.8698C54.8692 47.9016 54.7794 47.9368 54.6623 47.9791L54.6662 47.9826Z" fill="#0074BB"/>
</svg>
