<svg width="33" height="32" viewBox="0 0 33 32" fill="none" xmlns="http://www.w3.org/2000/svg">
<path d="M13.5038 25.9841V26.9835L18.001 23.6105C18.5007 23.2358 19.1253 22.9859 19.8124 22.9859H28.4946C28.9943 22.9859 29.494 22.5487 29.494 21.9865V3.99755C29.494 3.49786 28.9943 2.99816 28.4946 2.99816H4.50927C3.94711 2.99816 3.50988 3.49786 3.50988 3.99755V21.9865C3.50988 22.5487 3.94711 22.9859 4.50927 22.9859H10.5056C12.1296 22.9859 13.5038 24.3601 13.5038 25.9841ZM13.4413 30.7936L13.129 30.981L12.0671 31.793C11.7548 32.0429 11.3801 32.0429 11.0053 31.9179C10.693 31.7306 10.5056 31.4183 10.5056 30.981V25.9841H4.50927C2.26065 25.9841 0.511719 24.2352 0.511719 21.9865V3.99755C0.511719 1.81139 2.26065 0 4.50927 0H28.4946C30.6807 0 32.4921 1.81139 32.4921 3.99755V21.9865C32.4921 24.2352 30.6807 25.9841 28.4946 25.9841H19.8124L13.5038 30.7312L13.4413 30.7936Z" fill="white"/>
<path d="M12.0008 15C11.592 15 11.2416 14.8613 10.9497 14.5839C10.6577 14.292 10.5117 13.927 10.5117 13.4891C10.5117 13.0511 10.6577 12.6934 10.9497 12.4161C11.2416 12.1387 11.592 12 12.0008 12C12.3949 12 12.7307 12.1387 13.0081 12.4161C13.3 12.6934 13.446 13.0511 13.446 13.4891C13.446 13.927 13.3 14.292 13.0081 14.5839C12.7307 14.8613 12.3949 15 12.0008 15Z" fill="white"/>
<path d="M16.962 15C16.5532 15 16.2029 14.8613 15.9109 14.5839C15.6189 14.292 15.4729 13.927 15.4729 13.4891C15.4729 13.0511 15.6189 12.6934 15.9109 12.4161C16.2029 12.1387 16.5532 12 16.962 12C17.3562 12 17.6919 12.1387 17.9693 12.4161C18.2613 12.6934 18.4072 13.0511 18.4072 13.4891C18.4072 13.927 18.2613 14.292 17.9693 14.5839C17.6919 14.8613 17.3562 15 16.962 15Z" fill="white"/>
<path d="M21.9232 15C21.5145 15 21.1641 14.8613 20.8721 14.5839C20.5801 14.292 20.4342 13.927 20.4342 13.4891C20.4342 13.0511 20.5801 12.6934 20.8721 12.4161C21.1641 12.1387 21.5145 12 21.9232 12C22.3174 12 22.6531 12.1387 22.9305 12.4161C23.2225 12.6934 23.3685 13.0511 23.3685 13.4891C23.3685 13.927 23.2225 14.292 22.9305 14.5839C22.6531 14.8613 22.3174 15 21.9232 15Z" fill="white"/>
</svg>
