<svg width="32" height="32" viewBox="0 0 32 32" fill="none" xmlns="http://www.w3.org/2000/svg">
<path d="M23.7484 0H8.24844C4.44844 0 1.39844 3.1 1.39844 6.85V22.35C1.39844 26.15 4.49844 29.2 8.24844 29.2H12.8484C12.8484 29.25 12.8984 29.3 12.9484 29.3L15.2984 31.65C15.6484 32 16.2484 32 16.5984 31.65L18.9484 29.3C18.9984 29.25 18.9984 29.2 19.0484 29.2H23.7984C27.5984 29.2 30.6484 26.1 30.6484 22.35V6.85C30.5984 3.1 27.5484 0 23.7484 0ZM21.9984 20.9C21.9984 21.45 21.5484 21.9 20.9984 21.9H9.94844V21.25C9.94844 20.5 10.1484 20.15 10.3984 19.75L18.3984 9.85H10.2984V7.35H21.9984V7.7C21.9984 8.35 21.8984 8.9 21.4984 9.55L21.4484 9.6C21.3484 9.7 21.1484 9.95 21.0484 10.1L13.5484 19.55H22.0984V20.9H21.9984Z" fill="white"/>
</svg>
